<svg id="Group_7979" data-name="Group 7979" xmlns="http://www.w3.org/2000/svg" xmlns:xlink="http://www.w3.org/1999/xlink" width="548.109" height="479.347" viewBox="0 0 548.109 479.347">
  <defs>
    <clipPath id="clip-path">
      <rect id="Rectangle_1111" data-name="Rectangle 1111" width="548.109" height="479.347" fill="none"/>
    </clipPath>
    <clipPath id="clip-path-3">
      <rect id="Rectangle_1104" data-name="Rectangle 1104" width="167.941" height="101.523" fill="none"/>
    </clipPath>
    <clipPath id="clip-path-4">
      <rect id="Rectangle_1105" data-name="Rectangle 1105" width="55.298" height="14.412" fill="none"/>
    </clipPath>
    <clipPath id="clip-path-5">
      <rect id="Rectangle_1106" data-name="Rectangle 1106" width="16.401" height="15.32" fill="none"/>
    </clipPath>
    <clipPath id="clip-path-6">
      <rect id="Rectangle_1107" data-name="Rectangle 1107" width="5.794" height="5.684" fill="none"/>
    </clipPath>
    <clipPath id="clip-path-7">
      <rect id="Rectangle_1108" data-name="Rectangle 1108" width="9.754" height="62.325" fill="none"/>
    </clipPath>
    <clipPath id="clip-path-8">
      <rect id="Rectangle_1109" data-name="Rectangle 1109" width="24.494" height="5.944" fill="none"/>
    </clipPath>
  </defs>
  <g id="Group_7978" data-name="Group 7978" clip-path="url(#clip-path)">
    <g id="Group_7977" data-name="Group 7977">
      <g id="Group_7976" data-name="Group 7976" clip-path="url(#clip-path)">
        <path id="Path_8249" data-name="Path 8249" d="M372.442,199.407,273.788,162.1a13.2,13.2,0,0,1-7.675-17.013L317.754,8.533A13.2,13.2,0,0,1,334.766.856l62.567,23.663,29.553,68.235L389.455,191.73a13.2,13.2,0,0,1-17.013,7.677" transform="translate(94.58 0)" fill="#f5f5f5"/>
        <path id="Path_8250" data-name="Path 8250" d="M366.648,18.074,352.114,56.505a12.275,12.275,0,0,0,7.137,15.823L396.2,86.309Z" transform="translate(125.266 6.444)" fill="#ebebeb"/>
        <path id="Path_8251" data-name="Path 8251" d="M351.557,49.031S347.546,58.167,357,65.245a12.764,12.764,0,0,0,1.111.733c4.5,2.687,34.124,20.35,34.4,19.62l3.906-10.327L359.463,61.294s-9.107-3.8-7.906-12.263" transform="translate(125.05 17.483)" fill="#e0e0e0"/>
        <path id="Path_8252" data-name="Path 8252" d="M358.24,47.492c-.187.494-10.557-2.97-23.158-7.736s-22.671-9.032-22.484-9.526,10.554,2.97,23.161,7.736S358.427,47,358.24,47.492" transform="translate(111.46 10.762)" fill="#e0e0e0"/>
        <path id="Path_8253" data-name="Path 8253" d="M381.659,74.652c-.187.494-17.155-5.466-37.9-13.309s-37.41-14.606-37.223-15.1,17.152,5.464,37.9,13.311,37.406,14.6,37.219,15.1" transform="translate(109.3 16.478)" fill="#e0e0e0"/>
        <path id="Path_8254" data-name="Path 8254" d="M383.366,90.584c-.187.494-18.67-6.039-41.277-14.588S301.3,60.112,301.482,59.617s18.666,6.038,41.282,14.591,40.789,15.883,40.6,16.376" transform="translate(107.497 21.248)" fill="#e0e0e0"/>
        <path id="Path_8255" data-name="Path 8255" d="M378.594,103.2c-.187.494-18.67-6.038-41.277-14.588S296.523,72.73,296.71,72.236s18.666,6.038,41.282,14.591,40.788,15.884,40.6,16.376" transform="translate(105.795 25.747)" fill="#e0e0e0"/>
        <path id="Path_8256" data-name="Path 8256" d="M373.821,115.823c-.187.494-18.67-6.038-41.279-14.588s-40.793-15.885-40.606-16.379,18.666,6.038,41.281,14.591,40.79,15.884,40.6,16.376" transform="translate(104.093 30.247)" fill="#e0e0e0"/>
        <path id="Path_8257" data-name="Path 8257" d="M369.049,128.442c-.187.494-18.67-6.039-41.277-14.588s-40.793-15.885-40.606-16.379,18.666,6.037,41.283,14.591,40.786,15.883,40.6,16.376" transform="translate(102.392 34.746)" fill="#e0e0e0"/>
        <path id="Path_8258" data-name="Path 8258" d="M208.436,245.258,78.38,290.8a8.631,8.631,0,0,1-11-5.295L2.126,99.162a8.631,8.631,0,0,1,5.295-11L137.477,42.62a8.632,8.632,0,0,1,11,5.293l65.253,186.344a8.632,8.632,0,0,1-5.293,11" transform="translate(0.584 15.023)" fill="#ebebeb"/>
        <rect id="Rectangle_1099" data-name="Rectangle 1099" width="133.301" height="195.699" transform="matrix(0.944, -0.331, 0.331, 0.944, 13.923, 113.281)" fill="#e0e0e0"/>
        <rect id="Rectangle_1100" data-name="Rectangle 1100" width="133.302" height="191.962" transform="translate(11.672 112.407) rotate(-19.299)" fill="#fafafa"/>
        <path id="Path_8259" data-name="Path 8259" d="M197.926,231.623c-.532-1.514-26.079-74.249-63.613-181.117l.229.11L8.75,94.684l-.015.005.121-.252c23.714,68.055,45.787,130.9,63.407,181.189l-.2-.1c76.526-26.693,124.631-43.474,125.866-43.905L72.166,275.83l-.151.053-.053-.151C54.343,225.448,32.319,162.6,8.483,94.568l-.065-.187.187-.065.015-.005,125.8-44.034.171-.06.06.17c37.333,106.939,62.744,179.723,63.271,181.237" transform="translate(3.002 17.905)" fill="#e0e0e0"/>
        <path id="Path_8260" data-name="Path 8260" d="M115.217,208.141s28.018-23.629,32.874-48.239a35.588,35.588,0,0,1-23.951,14.422s-.562,25.838-8.922,33.818" transform="translate(41.082 57.015)" fill="#e0e0e0"/>
        <path id="Path_8261" data-name="Path 8261" d="M48.249,128.071l-6.625,2.32a4.637,4.637,0,0,1-5.909-2.845l-2.32-6.625a4.639,4.639,0,0,1,2.845-5.911l6.625-2.32a4.637,4.637,0,0,1,5.909,2.845l2.32,6.625a4.638,4.638,0,0,1-2.845,5.911" transform="translate(11.814 40.088)" fill="#ebebeb"/>
        <path id="Path_8262" data-name="Path 8262" d="M40.641,123.125l-.012,0a.379.379,0,0,1-.3-.034l-3.033-1.759a.38.38,0,0,1,.381-.658l2.675,1.551,3.2-6.853a.38.38,0,0,1,.688.322l-3.379,7.229a.383.383,0,0,1-.22.2" transform="translate(13.229 41.06)" fill="#fff"/>
        <path id="Path_8263" data-name="Path 8263" d="M122.974,91.953c.037.1-16.3,5.919-36.49,12.988S49.9,117.659,49.859,117.556s16.3-5.917,36.493-12.989,36.585-12.716,36.622-12.613" transform="translate(17.778 32.787)" fill="#e0e0e0"/>
        <path id="Path_8264" data-name="Path 8264" d="M83.568,111.167a8.027,8.027,0,0,1-1.186.5l-3.28,1.215c-2.776,1.009-6.619,2.379-10.871,3.868s-8.112,2.818-10.911,3.759L54,121.6a7.908,7.908,0,0,1-1.236.351,8.043,8.043,0,0,1,1.184-.5l3.28-1.215c2.776-1.009,6.619-2.379,10.873-3.869s8.111-2.816,10.909-3.759l3.322-1.1a7.973,7.973,0,0,1,1.236-.35" transform="translate(18.813 39.637)" fill="#e0e0e0"/>
        <path id="Path_8265" data-name="Path 8265" d="M124.259,95.627c.037.1-16.3,5.919-36.489,12.988S51.182,121.333,51.147,121.23s16.3-5.917,36.493-12.988,36.584-12.716,36.619-12.615" transform="translate(18.237 34.097)" fill="#e0e0e0"/>
        <path id="Path_8266" data-name="Path 8266" d="M55.218,147.97l-6.625,2.32a4.639,4.639,0,0,1-5.911-2.845l-2.32-6.625a4.637,4.637,0,0,1,2.845-5.909l6.625-2.32a4.637,4.637,0,0,1,5.909,2.845l2.32,6.625a4.636,4.636,0,0,1-2.843,5.909" transform="translate(14.298 47.183)" fill="#ebebeb"/>
        <path id="Path_8267" data-name="Path 8267" d="M47.609,143.024l-.012,0a.379.379,0,0,1-.3-.034l-3.035-1.759a.38.38,0,0,1,.381-.658l2.675,1.551,3.2-6.853a.38.38,0,1,1,.688.322l-3.381,7.229a.37.37,0,0,1-.217.2" transform="translate(15.713 48.155)" fill="#fff"/>
        <path id="Path_8268" data-name="Path 8268" d="M129.941,111.852c.037.1-16.3,5.919-36.49,12.988s-36.588,12.718-36.623,12.615,16.3-5.917,36.493-12.989,36.584-12.716,36.62-12.613" transform="translate(20.263 39.882)" fill="#e0e0e0"/>
        <path id="Path_8269" data-name="Path 8269" d="M90.536,131.066a8.045,8.045,0,0,1-1.184.5l-3.28,1.215c-2.776,1.009-6.619,2.379-10.871,3.868s-8.112,2.818-10.911,3.759l-3.322,1.1a7.908,7.908,0,0,1-1.236.351,8.04,8.04,0,0,1,1.184-.5l3.28-1.215c2.776-1.009,6.619-2.379,10.873-3.869s8.111-2.816,10.909-3.759l3.322-1.1a8.07,8.07,0,0,1,1.236-.35" transform="translate(21.298 46.732)" fill="#e0e0e0"/>
        <path id="Path_8270" data-name="Path 8270" d="M131.228,115.527c.037.1-16.3,5.919-36.49,12.988S58.15,141.233,58.115,141.13s16.3-5.917,36.493-12.988,36.584-12.718,36.62-12.615" transform="translate(20.722 41.192)" fill="#e0e0e0"/>
        <path id="Path_8271" data-name="Path 8271" d="M62.186,167.869l-6.625,2.32a4.637,4.637,0,0,1-5.909-2.845l-2.32-6.625a4.637,4.637,0,0,1,2.845-5.909l6.625-2.32a4.637,4.637,0,0,1,5.909,2.845l2.32,6.625a4.638,4.638,0,0,1-2.845,5.909" transform="translate(16.783 54.279)" fill="#ebebeb"/>
        <path id="Path_8272" data-name="Path 8272" d="M54.577,162.923l-.012,0a.379.379,0,0,1-.3-.034l-3.033-1.759a.38.38,0,0,1,.381-.658l2.675,1.551,3.2-6.853a.38.38,0,1,1,.688.322L54.8,162.724a.38.38,0,0,1-.218.2" transform="translate(18.198 55.251)" fill="#fff"/>
        <path id="Path_8273" data-name="Path 8273" d="M136.909,131.752c.037.1-16.3,5.919-36.49,12.988S63.831,157.458,63.8,157.355s16.3-5.917,36.493-12.988,36.584-12.718,36.62-12.615" transform="translate(22.747 46.977)" fill="#e0e0e0"/>
        <path id="Path_8274" data-name="Path 8274" d="M97.5,150.965a8.024,8.024,0,0,1-1.186.5l-3.28,1.215c-2.776,1.009-6.619,2.379-10.871,3.868s-8.112,2.818-10.911,3.759l-3.321,1.1a7.9,7.9,0,0,1-1.236.351,8.045,8.045,0,0,1,1.184-.5l3.28-1.215c2.776-1.009,6.619-2.379,10.873-3.869s8.111-2.816,10.909-3.759l3.322-1.1a8.5,8.5,0,0,1,1.236-.35" transform="translate(23.782 53.827)" fill="#e0e0e0"/>
        <path id="Path_8275" data-name="Path 8275" d="M138.2,135.426c.037.1-16.3,5.919-36.49,12.988s-36.588,12.718-36.623,12.615,16.3-5.917,36.493-12.988,36.584-12.718,36.62-12.615" transform="translate(23.206 48.287)" fill="#e0e0e0"/>
        <path id="Path_8276" data-name="Path 8276" d="M69.154,187.768l-6.625,2.32a4.637,4.637,0,0,1-5.909-2.845l-2.32-6.625a4.637,4.637,0,0,1,2.845-5.909l6.625-2.32a4.637,4.637,0,0,1,5.909,2.845L72,181.859a4.637,4.637,0,0,1-2.845,5.909" transform="translate(19.268 61.374)" fill="#ebebeb"/>
        <path id="Path_8277" data-name="Path 8277" d="M61.546,182.823l-.012,0a.384.384,0,0,1-.3-.034L58.2,181.033a.38.38,0,1,1,.381-.658l2.675,1.551,3.2-6.853a.38.38,0,1,1,.688.322l-3.381,7.229a.38.38,0,0,1-.218.2" transform="translate(20.683 62.346)" fill="#fff"/>
        <path id="Path_8278" data-name="Path 8278" d="M143.877,151.651c.037.1-16.3,5.919-36.489,12.988S70.8,177.357,70.765,177.254s16.3-5.917,36.493-12.988,36.584-12.718,36.619-12.615" transform="translate(25.232 54.073)" fill="#e0e0e0"/>
        <path id="Path_8279" data-name="Path 8279" d="M104.473,170.865a8.03,8.03,0,0,1-1.186.5l-3.28,1.215c-2.776,1.009-6.619,2.379-10.871,3.868s-8.112,2.818-10.911,3.759L74.9,181.3a7.909,7.909,0,0,1-1.236.351,8.043,8.043,0,0,1,1.184-.5l3.28-1.215c2.776-1.009,6.619-2.379,10.873-3.869s8.111-2.816,10.909-3.759l3.322-1.1a8.008,8.008,0,0,1,1.237-.35" transform="translate(26.267 60.923)" fill="#e0e0e0"/>
        <path id="Path_8280" data-name="Path 8280" d="M145.164,155.326c.037.1-16.3,5.919-36.49,12.988s-36.588,12.718-36.623,12.615,16.3-5.917,36.493-12.988,36.584-12.718,36.62-12.615" transform="translate(25.691 55.383)" fill="#e0e0e0"/>
        <path id="Path_8281" data-name="Path 8281" d="M19.108,78.086l3.321,9.484a10.558,10.558,0,0,0,13.454,6.475l69.589-24.368a10.557,10.557,0,0,0,6.475-13.453l-3.314-9.466Z" transform="translate(6.813 16.672)" fill="#e0e0e0"/>
        <path id="Path_8282" data-name="Path 8282" d="M56.249,65.433a9.9,9.9,0,1,1,6.072-12.613,9.911,9.911,0,0,1-6.072,12.613m-5.288-15.1a6.1,6.1,0,1,0,7.777,3.744,6.11,6.11,0,0,0-7.777-3.744" transform="translate(15.36 16.47)" fill="#e0e0e0"/>
        <path id="Path_8283" data-name="Path 8283" d="M115.392,78.512c.064.18-18.285,6.769-40.978,14.716s-41.147,14.245-41.21,14.065,18.281-6.768,40.982-14.717,41.142-14.244,41.206-14.063" transform="translate(11.84 27.993)" fill="#e0e0e0"/>
        <path id="Path_8284" data-name="Path 8284" d="M86.009,81c.064.18-8.015,3.173-18.04,6.682S49.764,93.9,49.7,93.715s8.013-3.172,18.041-6.684S85.947,80.821,86.009,81" transform="translate(17.721 28.879)" fill="#e0e0e0"/>
        <path id="Path_8285" data-name="Path 8285" d="M344.511,284.261c4.873-2.514,10.61-2.841,16.018-1.947,2.906.48,5.935,1.35,7.913,3.532s2.352,6.025.081,7.9a7.579,7.579,0,0,1-4.989,1.266c-4.234-.049-8.933-.795-12.315,1.753-1.93,1.454-3.215,3.87-5.523,4.585a5.452,5.452,0,0,1-6-2.671,9.322,9.322,0,0,1-.68-6.88,10.506,10.506,0,0,1,5.5-7.537" transform="translate(120.756 100.502)" fill="#00c08b"/>
        <path id="Path_8286" data-name="Path 8286" d="M335.485,279.362c2.979,4.256,8.769,2.846,11.455.25s3.82-6.362,4.852-9.952c2.36-8.2,4.74-16.805,2.984-25.157a13.989,13.989,0,0,0-3.212-6.84,7.3,7.3,0,0,0-6.92-2.3c-2.919.772-4.734,3.63-6.045,6.351a59.978,59.978,0,0,0-5.927,25.735c-.015,4.144.473,8.492,2.812,11.915" transform="translate(118.618 83.853)" fill="#00c08b"/>
        <path id="Path_8287" data-name="Path 8287" d="M337.733,281.87c3.235-3.839,3.849-9.439,2.409-14.248s-4.691-8.9-8.439-12.242a45.461,45.461,0,0,0-15.111-8.917,16.126,16.126,0,0,0-6.8-1.154,7.128,7.128,0,0,0-5.7,3.451c-1.59,3.033-.065,6.712,1.583,9.713a115.356,115.356,0,0,0,9.925,15.115c2.975,3.835,6.383,7.618,10.916,9.352s9.244,1.529,11.646-1.614" transform="translate(108.189 87.452)" fill="#00c08b"/>
        <path id="Path_8288" data-name="Path 8288" d="M334.612,325.346a9.294,9.294,0,0,0,.27-1.933l.514-5.277a76,76,0,0,1,1.187-7.739,59.548,59.548,0,0,1,2.814-9.135A33.665,33.665,0,0,1,344.062,293a17.43,17.43,0,0,1,5.9-4.9,16.5,16.5,0,0,1,4.966-1.547,9.3,9.3,0,0,0,1.925-.278,9.029,9.029,0,0,0-1.959-.03,15.061,15.061,0,0,0-5.179,1.347,17.392,17.392,0,0,0-6.221,4.946,32.865,32.865,0,0,0-4.835,8.432,55.833,55.833,0,0,0-2.793,9.284,65.253,65.253,0,0,0-1.028,7.837c-.168,2.241-.231,4.055-.262,5.31a8.86,8.86,0,0,0,.039,1.951" transform="translate(119.291 102.055)" fill="#263238"/>
        <path id="Path_8289" data-name="Path 8289" d="M334.976,335a3.835,3.835,0,0,0,.052-.9c0-.674,0-1.523-.007-2.565-.007-2.226-.005-5.448.114-9.427.2-7.958.882-16.522,2.206-28.595,1.253-11.353,2.936-24.566,4.71-33.156.381-1.953.764-3.713,1.125-5.251.345-1.544.638-2.873.921-3.95.244-1.013.442-1.838.6-2.493a3.873,3.873,0,0,0,.157-.884,3.747,3.747,0,0,0-.312.841l-.745,2.458c-.331,1.066-.669,2.388-1.055,3.925-.4,1.533-.826,3.287-1.243,5.238A291.057,291.057,0,0,0,336.547,291c-1.327,12.1-1.924,23.116-1.977,31.092-.047,3.988.038,7.217.14,9.446.064,1.042.115,1.891.156,2.564a3.706,3.706,0,0,0,.11.891" transform="translate(119.29 88.347)" fill="#263238"/>
        <path id="Path_8290" data-name="Path 8290" d="M342.376,312.04a16.956,16.956,0,0,0-.019-2.681c-.1-1.723-.335-4.212-.821-7.26a95.759,95.759,0,0,0-2.362-10.578A86.745,86.745,0,0,0,334.751,279a66.7,66.7,0,0,0-12.992-20.229,33.159,33.159,0,0,0-3.056-2.841c-.469-.4-.883-.792-1.305-1.106l-1.186-.817a17.026,17.026,0,0,0-2.256-1.445c-.128.174,3.2,2.131,7.4,6.6a70.248,70.248,0,0,1,12.666,20.156,98.9,98.9,0,0,1,4.448,12.4,107.626,107.626,0,0,1,2.512,10.474c.553,3.018.874,5.483,1.068,7.19a17.181,17.181,0,0,0,.33,2.655" transform="translate(111.943 90.054)" fill="#263238"/>
        <path id="Path_8291" data-name="Path 8291" d="M319.766,324.036l2.128,29.167h37.472l2.128-29.167Z" transform="translate(114.016 115.539)" fill="#263238"/>
        <rect id="Rectangle_1101" data-name="Rectangle 1101" width="49.82" height="11.497" transform="translate(430.163 428.078)" fill="#263238"/>
        <path id="Path_8292" data-name="Path 8292" d="M317.1,344.715V347.9h49v-3.187Z" transform="translate(113.065 122.912)" fill="#455a64"/>
        <path id="Path_8293" data-name="Path 8293" d="M321.118,352.672l-2.3-5.608H363.7l-2.678,5.608Z" transform="translate(113.68 123.75)" fill="#455a64"/>
        <path id="Path_8294" data-name="Path 8294" d="M360.634,332.141a1.244,1.244,0,0,1-.175.267c-.149.2-.332.442-.56.742l-2.183,2.793-.1.125-.094-.13c-1.373-1.9-3.206-4.433-5.362-7.418h.308L347.191,336l-.165.235-.186-.221-6.262-7.45.361,0-.345.433c-1.943,2.435-3.821,4.791-5.6,7.019l-.187.235-.172-.244-5.282-7.475.307.015-6.506,7.412-.115.132-.088-.148c-.857-1.441-1.541-2.59-2.038-3.423l-.522-.912a1.47,1.47,0,0,1-.16-.326,1.5,1.5,0,0,1,.218.289l.578.876c.52.818,1.239,1.945,2.138,3.36l-.2-.016,6.4-7.5.161-.189.147.2,5.33,7.441-.358-.01c1.773-2.232,3.648-4.592,5.586-7.03l.345-.433.178-.224.183.218c2.191,2.62,4.3,5.141,6.244,7.465l-.35.014c1.926-2.687,3.721-5.192,5.333-7.438l.156-.218.153.218,5.25,7.5-.191-.005,2.271-2.723c.247-.285.446-.517.608-.7a1.356,1.356,0,0,1,.228-.224" transform="translate(114.181 116.967)" fill="#e0e0e0"/>
        <path id="Path_8295" data-name="Path 8295" d="M361.935,323.955c0,.129-9.389.233-20.968.233s-20.971-.1-20.971-.233,9.387-.233,20.971-.233,20.968.1,20.968.233" transform="translate(114.098 115.427)" fill="#455a64"/>
        <path id="Path_8296" data-name="Path 8296" d="M364.287,347.357c0,.129-10.2.233-22.789.233s-22.792-.1-22.792-.233,10.2-.233,22.792-.233,22.789.1,22.789.233" transform="translate(113.639 123.771)" fill="#263238"/>
        <path id="Path_8297" data-name="Path 8297" d="M80.729,279.429c-.1.128-.958-.387-1.91-1.149s-1.641-1.484-1.54-1.613.958.387,1.91,1.149,1.641,1.484,1.54,1.613" transform="translate(27.551 98.642)" fill="#263238"/>
        <path id="Path_8298" data-name="Path 8298" d="M106.324,254.878c.157-3.629.259-7.351-.886-10.8s-3.8-6.617-7.361-7.354c-4.059-.841-8.219,1.721-10.494,5.187s-3.058,7.674-3.729,11.764a415.506,415.506,0,0,0-5.093,85.4l16.612,2.329c7.3-29.809,9.625-55.865,10.95-86.527" transform="translate(27.943 84.35)" fill="#76c089"/>
        <path id="Path_8299" data-name="Path 8299" d="M94.408,236.59a.965.965,0,0,1-.075.265c-.073.2-.164.45-.274.753l-1.107,2.869c-.232.625-.54,1.3-.788,2.076s-.518,1.616-.806,2.516-.6,1.868-.932,2.888q-.407,1.563-.857,3.294a144.456,144.456,0,0,0-3.208,16.44c-.9,6.247-1.488,13.167-1.952,20.437-.849,14.555-.982,27.767-1.357,37.32-.178,4.778-.34,8.643-.524,11.311q-.132,1.941-.209,3.071c-.027.32-.05.583-.069.8a1.021,1.021,0,0,1-.043.271.951.951,0,0,1-.016-.274c0-.216.005-.479.011-.8q.035-1.129.1-3.077c.111-2.67.212-6.536.335-11.312.267-9.553.332-22.766,1.184-37.343.464-7.282,1.072-14.217,2-20.479a137.606,137.606,0,0,1,3.344-16.47q.472-1.73.9-3.294c.346-1.019.671-1.983.978-2.885s.591-1.734.855-2.508.589-1.443.838-2.063l1.213-2.833.328-.73a.953.953,0,0,1,.13-.24" transform="translate(29.306 84.359)" fill="#263238"/>
        <path id="Path_8300" data-name="Path 8300" d="M93.355,236.6a11.885,11.885,0,0,1,2.029,3.436A25.431,25.431,0,0,1,96.9,250.78c-.441,9.18-1.263,21.828-2.356,35.794s-2.316,26.594-3.3,35.721c-.49,4.563-.914,8.253-1.228,10.8q-.238,1.85-.377,2.932c-.045.3-.083.553-.113.761a.894.894,0,0,1-.058.256.892.892,0,0,1,0-.263c.015-.209.033-.46.054-.766q.1-1.087.266-2.944c.251-2.609.6-6.292,1.039-10.819.874-9.135,2.024-21.762,3.121-35.725s1.981-26.612,2.529-35.762A26.032,26.032,0,0,0,95.17,240.12a22.417,22.417,0,0,0-1.815-3.523" transform="translate(31.899 84.361)" fill="#263238"/>
        <path id="Path_8301" data-name="Path 8301" d="M102.425,268.874a9.086,9.086,0,0,1-3.149-.814,9.072,9.072,0,0,1-2.948-1.373,9.085,9.085,0,0,1,3.149.814,9.1,9.1,0,0,1,2.948,1.373" transform="translate(34.346 95.078)" fill="#263238"/>
        <path id="Path_8302" data-name="Path 8302" d="M103.936,255.817a10.1,10.1,0,0,1-3,1.666,10.029,10.029,0,0,1-3.238,1.123,10.1,10.1,0,0,1,3-1.666,10.12,10.12,0,0,1,3.238-1.123" transform="translate(34.836 91.205)" fill="#263238"/>
        <path id="Path_8303" data-name="Path 8303" d="M102.823,245.758a5.38,5.38,0,0,1-2.477.126,5.382,5.382,0,0,1-2.436-.465,5.359,5.359,0,0,1,2.477-.126,5.349,5.349,0,0,1,2.436.465" transform="translate(34.911 87.446)" fill="#263238"/>
        <path id="Path_8304" data-name="Path 8304" d="M89.623,240.246c-.138.087-.867-.819-1.625-2.024s-1.262-2.253-1.122-2.34.865.819,1.625,2.024,1.26,2.253,1.122,2.34" transform="translate(30.968 84.104)" fill="#263238"/>
        <path id="Path_8305" data-name="Path 8305" d="M85.957,245.348a4.924,4.924,0,0,1-2.359.247,4.907,4.907,0,0,1-2.347-.347A4.924,4.924,0,0,1,83.61,245a4.931,4.931,0,0,1,2.347.347" transform="translate(28.971 87.357)" fill="#263238"/>
        <path id="Path_8306" data-name="Path 8306" d="M82.969,258.093a5.772,5.772,0,0,1-2.483-.681c-1.31-.528-2.322-1.08-2.261-1.232a5.776,5.776,0,0,1,2.483.681c1.31.529,2.322,1.08,2.261,1.232" transform="translate(27.891 91.33)" fill="#263238"/>
        <path id="Path_8307" data-name="Path 8307" d="M82.544,267.967c.034.16-.913.5-2.114.746s-2.2.327-2.236.166.913-.5,2.114-.747,2.2-.326,2.236-.164" transform="translate(27.881 95.517)" fill="#263238"/>
        <path id="Path_8308" data-name="Path 8308" d="M81.2,284.923c.028.161-.975.476-2.244.7a4.828,4.828,0,0,1-2.348.119c-.028-.161.975-.476,2.244-.7a4.828,4.828,0,0,1,2.348-.119" transform="translate(27.314 101.559)" fill="#263238"/>
        <path id="Path_8309" data-name="Path 8309" d="M80.111,294.264c.076.145-.761.738-1.871,1.325s-2.071.945-2.149.8.761-.738,1.871-1.325,2.073-.946,2.149-.8" transform="translate(27.129 104.912)" fill="#263238"/>
        <path id="Path_8310" data-name="Path 8310" d="M87.423,306.14c-.142.081-.872-.927-1.631-2.251a6.731,6.731,0,0,1-1.116-2.546c.142-.081.872.927,1.631,2.251a6.678,6.678,0,0,1,1.116,2.546" transform="translate(30.184 107.446)" fill="#263238"/>
        <path id="Path_8311" data-name="Path 8311" d="M89.967,287.23c.115.117-.7,1.1-1.816,2.2s-2.118,1.89-2.232,1.773.7-1.1,1.816-2.2,2.118-1.891,2.232-1.773" transform="translate(30.632 102.411)" fill="#263238"/>
        <path id="Path_8312" data-name="Path 8312" d="M89.188,278.8c-.121.111-.875-.507-1.685-1.382s-1.37-1.674-1.249-1.785.875.507,1.685,1.382,1.37,1.674,1.249,1.785" transform="translate(30.749 98.276)" fill="#263238"/>
        <path id="Path_8313" data-name="Path 8313" d="M90.844,266.134c.122.11-.556,1.065-1.514,2.134s-1.834,1.848-1.956,1.738.556-1.065,1.514-2.134,1.834-1.848,1.956-1.738" transform="translate(31.149 94.889)" fill="#263238"/>
        <path id="Path_8314" data-name="Path 8314" d="M91.785,258.53c-.115.117-1.061-.627-2.112-1.66s-1.811-1.967-1.7-2.084,1.061.627,2.112,1.66,1.812,1.966,1.7,2.084" transform="translate(31.365 90.843)" fill="#263238"/>
        <path id="Path_8315" data-name="Path 8315" d="M93.156,245.934a5.8,5.8,0,0,1-1.061,2.358c-.727,1.218-1.43,2.138-1.571,2.054a5.8,5.8,0,0,1,1.061-2.358c.727-1.218,1.43-2.138,1.571-2.054" transform="translate(32.269 87.689)" fill="#263238"/>
        <path id="Path_8316" data-name="Path 8316" d="M96.25,235.176a5.628,5.628,0,0,1-.937,2.36c-.662,1.226-1.316,2.156-1.461,2.078a5.619,5.619,0,0,1,.939-2.36c.662-1.226,1.316-2.157,1.46-2.078" transform="translate(33.454 83.853)" fill="#263238"/>
        <path id="Path_8317" data-name="Path 8317" d="M100.039,240.073c.071.148-.594.613-1.484,1.039s-1.67.651-1.74.5.594-.613,1.484-1.039,1.67-.651,1.74-.5" transform="translate(34.518 85.585)" fill="#263238"/>
        <path id="Path_8318" data-name="Path 8318" d="M100.872,279.384a6.715,6.715,0,0,1-3.249-.787,6.727,6.727,0,0,1-2.818-1.8,16.439,16.439,0,0,1,3.05,1.255,16.319,16.319,0,0,1,3.017,1.333" transform="translate(33.802 98.688)" fill="#263238"/>
        <path id="Path_8319" data-name="Path 8319" d="M99.018,286.9c.031.161-.97.49-2.234.734a4.832,4.832,0,0,1-2.347.151c-.031-.16.97-.49,2.234-.734a4.873,4.873,0,0,1,2.347-.151" transform="translate(33.672 102.268)" fill="#263238"/>
        <path id="Path_8320" data-name="Path 8320" d="M97.1,302.279a9.4,9.4,0,0,1-4.116-5.19,19.514,19.514,0,0,1,2.051,2.6,19.462,19.462,0,0,1,2.065,2.59" transform="translate(33.148 105.929)" fill="#263238"/>
        <path id="Path_8321" data-name="Path 8321" d="M76.335,308.1c-.106-.125.568-.876,1.507-1.679s1.787-1.352,1.894-1.229-.568.876-1.507,1.679-1.787,1.354-1.894,1.229" transform="translate(27.214 108.814)" fill="#263238"/>
        <path id="Path_8322" data-name="Path 8322" d="M74.088,278.642c-1.081-3.376-3.111-7.312-6.655-7.363a5.888,5.888,0,0,0-4.984,3.336,12.306,12.306,0,0,0-1.347,6.111,159.258,159.258,0,0,0,7.618,44.248H81.69a154.042,154.042,0,0,0-7.6-46.332" transform="translate(21.784 96.727)" fill="#76c089"/>
        <path id="Path_8323" data-name="Path 8323" d="M59.239,264.07c-1.812-7.251-7.221-11.169-13.5-11.532-5.733,1.005-7.956,6.65-8.637,12.43s1.114,11.535,2.887,17.078q8.536,26.7,17.074,53.4L73.2,333.685c-5.107-23.847-8.04-45.954-13.956-69.615" transform="translate(13.175 90.045)" fill="#76c089"/>
        <path id="Path_8324" data-name="Path 8324" d="M66.337,271.278a13.647,13.647,0,0,0-1.1,1.835,12.107,12.107,0,0,0-.606,5.734c.251,2.465.533,5.434.947,8.687s1.009,6.829,1.739,10.554c1.466,7.452,3.119,14.138,4.167,19.012.532,2.435.932,4.413,1.186,5.784.107.631.2,1.153.271,1.583a1.98,1.98,0,0,1,.054.56,2.013,2.013,0,0,1-.172-.536c-.1-.423-.228-.937-.38-1.559L71.076,317.2c-1.153-4.846-2.87-11.517-4.341-18.992-.731-3.736-1.3-7.321-1.7-10.6-.206-1.637-.343-3.2-.476-4.662s-.278-2.812-.347-4.064a11.781,11.781,0,0,1,.815-5.859,5.135,5.135,0,0,1,1.309-1.742" transform="translate(22.88 96.727)" fill="#263238"/>
        <path id="Path_8325" data-name="Path 8325" d="M44.885,252.2a21.573,21.573,0,0,0-1.949,2.621,18.422,18.422,0,0,0-2.455,8.443c-.247,3.755.59,8.211,2,12.99,1.418,4.8,2.972,10.071,4.6,15.6,3.218,11.06,6.13,21.069,8.259,28.389,1.016,3.594,1.845,6.524,2.438,8.622q.395,1.465.634,2.352a4.5,4.5,0,0,1,.182.832,4.564,4.564,0,0,1-.3-.8l-.741-2.321c-.638-2.086-1.527-5-2.618-8.568-2.172-7.306-5.143-17.3-8.426-28.34l-4.561-15.622c-1.384-4.808-2.195-9.343-1.89-13.168A18.1,18.1,0,0,1,42.74,254.7a9.919,9.919,0,0,1,2.145-2.5" transform="translate(14.261 89.925)" fill="#263238"/>
        <path id="Path_8326" data-name="Path 8326" d="M67.592,332a4.63,4.63,0,0,1-.365-.773c-.212-.518-.555-1.27-.92-2.27-.769-1.983-1.755-4.9-2.776-8.569S61.5,312.3,60.524,307.371c-.935-4.941-1.962-10.36-3.039-16.052-1.122-5.68-2.371-11.055-3.821-15.851a88.1,88.1,0,0,0-4.7-12.433,65.932,65.932,0,0,0-4.35-7.84c-.555-.9-1.059-1.556-1.359-2.028a4.649,4.649,0,0,1-.452-.726,4.542,4.542,0,0,1,.548.655c.332.45.868,1.083,1.454,1.971a58.59,58.59,0,0,1,4.536,7.785,84.252,84.252,0,0,1,4.85,12.456,159.092,159.092,0,0,1,3.881,15.9c1.061,5.695,2.071,11.118,2.993,16.062.943,4.928,1.906,9.343,2.876,13.009s1.886,6.6,2.587,8.6c.33,1.009.638,1.773.813,2.3a4.537,4.537,0,0,1,.256.817" transform="translate(15.26 90.011)" fill="#263238"/>
        <path id="Path_8327" data-name="Path 8327" d="M40.469,272.348c.038.159-.838.509-1.96.781s-2.062.364-2.1.2.838-.509,1.96-.781,2.061-.365,2.1-.2" transform="translate(12.981 97.081)" fill="#263238"/>
        <path id="Path_8328" data-name="Path 8328" d="M39.575,264.289a7.936,7.936,0,0,1-2.721.294,7.958,7.958,0,0,1-2.736-.08,5.574,5.574,0,0,1,2.713-.513,5.591,5.591,0,0,1,2.744.3" transform="translate(12.165 94.125)" fill="#263238"/>
        <path id="Path_8329" data-name="Path 8329" d="M40.412,257.586c-.106.125-.982-.445-1.958-1.271s-1.679-1.6-1.574-1.724.982.445,1.958,1.272,1.679,1.6,1.574,1.723" transform="translate(13.147 90.771)" fill="#263238"/>
        <path id="Path_8330" data-name="Path 8330" d="M43.241,249.93c.163.037.118.821.094,1.77s-.031,1.734-.2,1.761-.429-.764-.4-1.778.345-1.791.5-1.753" transform="translate(15.239 89.115)" fill="#263238"/>
        <path id="Path_8331" data-name="Path 8331" d="M51.122,253.166c.134.094-.26.889-.88,1.776s-1.233,1.529-1.367,1.435.259-.889.88-1.776,1.233-1.529,1.367-1.435" transform="translate(17.417 90.266)" fill="#263238"/>
        <path id="Path_8332" data-name="Path 8332" d="M56.377,261.536c.062.152-.773.636-1.867,1.081s-2.028.684-2.09.532.773-.636,1.867-1.081,2.028-.684,2.09-.532" transform="translate(18.69 93.237)" fill="#263238"/>
        <path id="Path_8333" data-name="Path 8333" d="M59.661,270.134A4.877,4.877,0,0,1,57.1,271.25a4.881,4.881,0,0,1-2.79.1,10.616,10.616,0,0,1,2.659-.676,10.676,10.676,0,0,1,2.69-.537" transform="translate(19.366 96.306)" fill="#263238"/>
        <path id="Path_8334" data-name="Path 8334" d="M44.87,268.583c-.156-.049-.043-.855.254-1.8s.663-1.673.819-1.624.043.855-.254,1.8-.662,1.673-.819,1.624" transform="translate(15.974 94.545)" fill="#263238"/>
        <path id="Path_8335" data-name="Path 8335" d="M46.732,279.693a5.581,5.581,0,0,1,.73-2.426c.553-1.274,1.123-2.255,1.274-2.19a5.581,5.581,0,0,1-.73,2.426c-.552,1.275-1.123,2.255-1.274,2.19" transform="translate(16.65 98.081)" fill="#263238"/>
        <path id="Path_8336" data-name="Path 8336" d="M43.293,281.827a5.859,5.859,0,0,1-2.324-.51c-1.237-.388-2.236-.742-2.2-.9a4.372,4.372,0,0,1,2.378.338c1.264.393,2.208.928,2.146,1.077" transform="translate(13.823 99.959)" fill="#263238"/>
        <path id="Path_8337" data-name="Path 8337" d="M45.67,290.246c.095.133-.6.789-1.544,1.466s-1.793,1.116-1.888.984.6-.79,1.544-1.466,1.793-1.118,1.888-.984" transform="translate(15.057 103.482)" fill="#263238"/>
        <path id="Path_8338" data-name="Path 8338" d="M47.943,299.038c.039.159-.817.5-1.91.771s-2.012.353-2.05.193.817-.5,1.91-.771,2.01-.351,2.05-.193" transform="translate(15.682 106.597)" fill="#263238"/>
        <path id="Path_8339" data-name="Path 8339" d="M59.473,277.467c.083.137-.648.72-1.713,1.119s-2,.448-2.027.29.806-.461,1.818-.845,1.838-.709,1.922-.564" transform="translate(19.872 98.922)" fill="#263238"/>
        <path id="Path_8340" data-name="Path 8340" d="M61.1,291.574c-.069.148-.941-.115-1.945-.587s-1.762-.977-1.693-1.125.94.115,1.945.587,1.764.977,1.693,1.125" transform="translate(20.488 103.339)" fill="#263238"/>
        <path id="Path_8341" data-name="Path 8341" d="M64.363,301.4a6.168,6.168,0,0,1-2.569-.688c-1.359-.533-2.412-1.088-2.352-1.241a6.168,6.168,0,0,1,2.569.688,6.154,6.154,0,0,1,2.352,1.241" transform="translate(21.194 106.767)" fill="#263238"/>
        <path id="Path_8342" data-name="Path 8342" d="M47.371,309.472c-.08-.149.978-.86,2.2-1.826s2.169-1.819,2.294-1.705-.654,1.176-1.928,2.172a5.322,5.322,0,0,1-2.567,1.359" transform="translate(16.889 109.083)" fill="#263238"/>
        <path id="Path_8343" data-name="Path 8343" d="M55.5,304.588c-.168.019-.4-.871-.8-1.906s-.826-1.852-.688-1.949.813.616,1.241,1.736.406,2.107.248,2.119" transform="translate(19.247 107.227)" fill="#263238"/>
        <path id="Path_8344" data-name="Path 8344" d="M53.755,292.332c-.1.133-.773-.189-1.513-.72s-1.262-1.069-1.165-1.2.772.189,1.513.72,1.262,1.069,1.165,1.2" transform="translate(18.208 103.538)" fill="#263238"/>
        <path id="Path_8345" data-name="Path 8345" d="M71.929,273.407c.1.132-.562.784-1.473,1.456s-1.728,1.11-1.826.978.562-.783,1.473-1.456,1.73-1.11,1.826-.978" transform="translate(24.467 97.478)" fill="#263238"/>
        <path id="Path_8346" data-name="Path 8346" d="M74.954,280.967c.015.159-1.017.376-2.3.235s-2.241-.568-2.192-.719,1.039,0,2.256.129,2.219.189,2.232.355" transform="translate(25.125 99.985)" fill="#263238"/>
        <path id="Path_8347" data-name="Path 8347" d="M63.255,282.512c.035.156-.921.5-2.156.579s-2.229-.129-2.214-.288.988-.223,2.175-.3,2.16-.151,2.195.012" transform="translate(20.996 100.698)" fill="#263238"/>
        <path id="Path_8348" data-name="Path 8348" d="M64.056,275.91c-.012.157-.978.183-2.035-.307s-1.67-1.233-1.559-1.344.841.368,1.807.8,1.808.678,1.787.847" transform="translate(21.554 97.783)" fill="#263238"/>
        <path id="Path_8349" data-name="Path 8349" d="M75.856,289.474c-.087.138-1.077-.327-2.21-1.041s-1.981-1.4-1.894-1.542,1.077.327,2.21,1.04,1.981,1.4,1.894,1.542" transform="translate(25.582 102.286)" fill="#263238"/>
        <rect id="Rectangle_1102" data-name="Rectangle 1102" width="84.447" height="14.967" transform="translate(55.612 420.009)" fill="#ff725e"/>
        <path id="Path_8350" data-name="Path 8350" d="M45.644,318.458l10.268,44.727h50.331l11.235-44.727Z" transform="translate(16.275 113.55)" fill="#ff725e"/>
        <path id="Path_8351" data-name="Path 8351" d="M125.576,320.739c0,.164-19.049.3-42.54.3s-42.544-.133-42.544-.3,19.045-.3,42.544-.3,42.54.133,42.54.3" transform="translate(14.438 114.257)" fill="#263238"/>
        <path id="Path_8352" data-name="Path 8352" d="M69.145,283.6c-.138.087-.716-.586-1.289-1.5s-.925-1.73-.785-1.818.716.586,1.289,1.5.924,1.73.785,1.816" transform="translate(23.904 99.935)" fill="#263238"/>
        <path id="Path_8353" data-name="Path 8353" d="M68.629,292.75c-.156-.052.042-1.069.442-2.272s.851-2.138,1.005-2.085-.042,1.069-.442,2.272-.851,2.137-1.005,2.085" transform="translate(24.451 102.829)" fill="#263238"/>
        <path id="Path_8354" data-name="Path 8354" d="M72.261,302.179c-.148.071-.779-.94-1.409-2.257a6.14,6.14,0,0,1-.874-2.514c.148-.071.779.94,1.409,2.257a6.14,6.14,0,0,1,.874,2.514" transform="translate(24.94 106.043)" fill="#263238"/>
        <path id="Path_8355" data-name="Path 8355" d="M65.083,309.243c-.123-.107.38-.891,1.126-1.75s1.45-1.468,1.574-1.361-.38.89-1.126,1.75-1.449,1.468-1.574,1.361" transform="translate(23.199 109.151)" fill="#263238"/>
        <path id="Path_8356" data-name="Path 8356" d="M64.625,295c-.028.161-.841.153-1.815-.019s-1.74-.442-1.712-.6.841-.153,1.815.019,1.74.442,1.712.6" transform="translate(21.785 104.923)" fill="#263238"/>
        <rect id="Rectangle_1103" data-name="Rectangle 1103" width="200.258" height="159.697" transform="translate(179.948 317.145)" fill="#e0e0e0"/>
        <g id="Group_7960" data-name="Group 7960" transform="translate(194.538 316.923)" opacity="0.3">
          <g id="Group_7959" data-name="Group 7959">
            <g id="Group_7958" data-name="Group 7958" clip-path="url(#clip-path-3)">
              <path id="Path_8357" data-name="Path 8357" d="M143.4,234.18c23.577,8.413,49.582,10.207,74.885,10.68,5.239.1,10.546.09,15.617,1.411s9.979,4.166,12.583,8.713c2.835,4.95,2.533,11.15.924,16.623s-4.4,10.519-6.414,15.856A59.3,59.3,0,0,0,237.841,317c.627,4.207,1.754,8.443,4.185,11.934s6.349,6.148,10.6,6.209c7.61.11,12.822-7.372,16.6-13.982,15.476-27.111,32.22-57.936,42.123-87.54Z" transform="translate(-143.405 -233.622)"/>
            </g>
          </g>
        </g>
        <path id="Path_8358" data-name="Path 8358" d="M183.042,392.435c-.2,0-.353-35.4-.353-79.048s.159-79.056.353-79.056.353,35.389.353,79.056c0,43.651-.159,79.048-.353,79.048" transform="translate(65.14 83.553)" fill="#455a64"/>
        <path id="Path_8359" data-name="Path 8359" d="M283.6,175.432c-.6-3.982-12.5-17.15-12.5-17.15s-5.951-23.886-7.736-30.93a23.28,23.28,0,0,0-2.588-5.769,46.481,46.481,0,0,0-17.375-16.76l-16.471-9.263-3.942-8.77L183.409,66.457l-10.73,18.931s-26.06,8.282-29.508,14.2,1.711,85.189,1.711,85.189-10.907,45.75-13.207,55.215.741,20.761.741,20.761l19.41-24.36c6.03-7.568,19.274-11.047,28.782-10.912l81.273.358-3.233-22.764,65.715,12.78s11.307-22.05,12.2-22.493S283.6,175.432,283.6,175.432" transform="translate(46.643 23.696)" fill="#ff725e"/>
        <path id="Path_8360" data-name="Path 8360" d="M168.351,85.9c-.571-.581,4.593,16.857,11.074,34.615a87.348,87.348,0,0,1,5.242,29.937v64.3l38.97-2.647-5.826-42.356s-4.751-27.324-6.08-37.714c-1.218-9.515-5.4-35.317-5.4-35.317s-21.659,5.8-37.976-10.817" transform="translate(60.012 30.624)" fill="#fff"/>
        <path id="Path_8361" data-name="Path 8361" d="M232.093,162.821a2.429,2.429,0,0,1,0-.981,14.429,14.429,0,0,1,.513-2.62,17.593,17.593,0,0,1,12.007-12.031,14.642,14.642,0,0,1,2.618-.518,2.444,2.444,0,0,1,.981,0c.016.121-1.366.267-3.447.993a18.711,18.711,0,0,0-11.681,11.706c-.722,2.084-.867,3.466-.988,3.45" transform="translate(82.742 52.284)" fill="#263238"/>
        <path id="Path_8362" data-name="Path 8362" d="M233.564,147.663c-.085-.155,2.476-1.45,5.949-1.723,3.473-.3,6.21.562,6.151.727-.041.21-2.751-.315-6.094-.023-3.341.259-5.93,1.221-6.005,1.019" transform="translate(83.279 52.015)" fill="#263238"/>
        <g id="Group_7963" data-name="Group 7963" transform="translate(184.216 234.763)" opacity="0.3">
          <g id="Group_7962" data-name="Group 7962">
            <g id="Group_7961" data-name="Group 7961" clip-path="url(#clip-path-4)">
              <path id="Path_8363" data-name="Path 8363" d="M139.178,173.057l-3.382,3.835c3.623,4.213,8.332,7.75,13.73,9.078s11.006,1.485,16.564,1.5a23.939,23.939,0,0,0,6.7-.638c2.2-.635,4.261-1.888,6.551-2.025a17.055,17.055,0,0,1,4.546.65,8.855,8.855,0,0,0,4.554.073,3.6,3.6,0,0,0,2.651-3.36,240.239,240.239,0,0,0-51.912-9.112" transform="translate(-135.796 -173.057)"/>
            </g>
          </g>
        </g>
        <path id="Path_8364" data-name="Path 8364" d="M238.348,180.66l-9.561-10.155-19.667-4.977s-18.023,5.4-18.455,5.384-15.686-4.167-15.686-4.167l-5.33,19.553,27.473,1.882,31.369-1.256s1.636-1.523.666-2.565,5.244,1.761,5.976,1.795,2.15.6,3.119-.577c.661-.8,1.559-3.364.1-4.916" transform="translate(60.49 59.021)" fill="#ffbe9d"/>
        <path id="Path_8365" data-name="Path 8365" d="M219.141,180.867a17.126,17.126,0,0,1-3.126-.89c-1.906-.605-4.544-1.414-7.5-2.17s-5.655-1.315-7.616-1.708a16.935,16.935,0,0,1-3.165-.738,13.373,13.373,0,0,1,3.248.246,69.808,69.808,0,0,1,7.708,1.515,67.212,67.212,0,0,1,7.486,2.383,13.251,13.251,0,0,1,2.96,1.362" transform="translate(70.507 62.513)" fill="#eb996e"/>
        <path id="Path_8366" data-name="Path 8366" d="M228.212,178.713a41.568,41.568,0,0,1-4.363-1.408c-2.678-.9-6.419-2.009-10.58-3.17-4.156-1.236-7.857-2.47-10.664-2.634a25.984,25.984,0,0,0-4.528.178,3.542,3.542,0,0,1,1.178-.4,12.975,12.975,0,0,1,3.379-.279c2.9.041,6.714,1.232,10.827,2.453,4.163,1.163,7.907,2.351,10.555,3.381,1.327.507,2.383.959,3.105,1.291a4.013,4.013,0,0,1,1.091.587" transform="translate(70.627 60.969)" fill="#eb996e"/>
        <path id="Path_8367" data-name="Path 8367" d="M148.695,90.879s-14.179,9.859-17.629,24.057-18.395,72.175-15.329,80.851,62.681,17.185,62.681,17.185l7.064-29.805-30.274-8.282s.384-27.607.766-39.045-7.279-44.962-7.279-44.962" transform="translate(41.121 32.404)" fill="#ff725e"/>
        <path id="Path_8368" data-name="Path 8368" d="M168.249,162.187l9.756,2.4-5.868,22.5-9.587-1.534Z" transform="translate(57.959 57.83)" fill="#fff"/>
        <path id="Path_8369" data-name="Path 8369" d="M115.477,170.6c.05,0-.028.5.145,1.4a6.612,6.612,0,0,0,2.078,3.385c2.591,2.412,7.537,4.421,13.813,5.55l.02,0,.024.008c2.868.941,6.133,1.69,9.626,2.481s7.254,1.583,11.22,2.39c7.932,1.622,16.709,3.328,26.008,5.068l-.4.262c.673-2.765,1.385-5.688,2.108-8.651,1.673-6.84,3.292-13.465,4.829-19.746l.239.408-26.907-7.681-.015,0-.015-.007a26.585,26.585,0,0,0-11.736-2.055,25.935,25.935,0,0,0-8.857,2.08,29.863,29.863,0,0,0-5.088,2.819l-1.232.9a2.43,2.43,0,0,1-.437.289,2.5,2.5,0,0,1,.385-.354c.267-.218.653-.56,1.19-.966a27.465,27.465,0,0,1,5.059-2.972,25.788,25.788,0,0,1,8.955-2.236,26.839,26.839,0,0,1,11.973,1.987l-.03-.011,26.943,7.555.316.088-.077.32c-1.529,6.284-3.14,12.91-4.8,19.753-.723,2.963-1.438,5.886-2.112,8.649l-.079.323-.326-.061c-9.3-1.751-18.076-3.482-26.007-5.143-3.967-.826-7.717-1.65-11.219-2.457s-6.748-1.589-9.665-2.579l.043.011c-6.343-1.207-11.3-3.3-13.918-5.835a6.591,6.591,0,0,1-2.031-3.547,4.127,4.127,0,0,1-.015-1.428" transform="translate(41.157 54.521)" fill="#263238"/>
        <path id="Path_8370" data-name="Path 8370" d="M151.871,156.184c-.083.09-1.093-.837-2.913-2.055a27.81,27.81,0,0,0-16.124-4.7c-2.188.052-3.538.29-3.561.171a11.084,11.084,0,0,1,3.537-.669,24.672,24.672,0,0,1,16.436,4.787,11.071,11.071,0,0,1,2.625,2.461" transform="translate(46.094 53.08)" fill="#263238"/>
        <path id="Path_8371" data-name="Path 8371" d="M151.18,118.463a9,9,0,0,1,.02,1.818c-.026,1.169-.128,2.857-.286,4.942-.334,4.166-.955,9.912-2.044,16.2a112.986,112.986,0,0,1-3.76,15.9c-.332.993-.674,1.88-.967,2.658-.323.728-.61,1.377-.867,1.953a8.979,8.979,0,0,1-.928,1.568,9.057,9.057,0,0,1,.678-1.681c.221-.585.469-1.243.747-1.981.255-.785.56-1.675.86-2.67a140.311,140.311,0,0,0,3.541-15.87c1.084-6.265,1.783-11.984,2.242-16.128.2-1.967.374-3.614.51-4.913a9.184,9.184,0,0,1,.254-1.8" transform="translate(50.754 42.239)" fill="#263238"/>
        <path id="Path_8372" data-name="Path 8372" d="M179.2,116.654c-.046.012-.141-.37-.471-1a6.029,6.029,0,0,0-2.038-2.229,5.109,5.109,0,0,0-4.412-.646,5.687,5.687,0,0,0-3.722,4.213l-.19.965-.415-.893a94.793,94.793,0,0,1-4.146-10.474c-2.293-6.985-3.282-13.676-3.064-18.506-.007-1.207.17-2.294.239-3.248.164-.946.285-1.762.431-2.42a11.832,11.832,0,0,1,.6-2,47.2,47.2,0,0,0-.772,7.679,58.779,58.779,0,0,0,3.237,18.28,105.228,105.228,0,0,0,4.055,10.425l-.605.073a6.215,6.215,0,0,1,4.189-4.6,5.471,5.471,0,0,1,4.789.836,5.833,5.833,0,0,1,2.005,2.458,4.045,4.045,0,0,1,.256.8c.039.187.05.285.033.289" transform="translate(57.305 28.671)" fill="#263238"/>
        <path id="Path_8373" data-name="Path 8373" d="M198.9,119.339a9.6,9.6,0,0,1-.313-1.614,16.849,16.849,0,0,1-.288-4.547,9.519,9.519,0,0,1,3.271-6.008,6.221,6.221,0,0,1,3.944-1.416,5.374,5.374,0,0,1,4.152,1.857l-.6.343c-.412-1.04-.846-2.131-1.287-3.242-2.53-6.391-4.785-12.19-6.383-16.4l-1.858-5a10.409,10.409,0,0,1-.591-1.867,10.41,10.41,0,0,1,.849,1.77l2.069,4.92c1.717,4.165,4.045,9.937,6.577,16.328.438,1.111.87,2.2,1.281,3.244l.827,2.095-1.426-1.751a4.722,4.722,0,0,0-3.615-1.629,5.614,5.614,0,0,0-3.556,1.233,9.2,9.2,0,0,0-3.193,5.584,19.272,19.272,0,0,0,.077,4.454,6.8,6.8,0,0,1,.062,1.646" transform="translate(70.684 29.041)" fill="#263238"/>
        <path id="Path_8374" data-name="Path 8374" d="M217.275,111.86c.193-.027,3.258,20.6,6.847,46.059s6.341,46.135,6.147,46.162-3.258-20.593-6.847-46.063-6.341-46.131-6.147-46.158" transform="translate(77.468 39.885)" fill="#263238"/>
        <g id="Group_7966" data-name="Group 7966" transform="translate(221.532 135.483)" opacity="0.3">
          <g id="Group_7965" data-name="Group 7965">
            <g id="Group_7964" data-name="Group 7964" clip-path="url(#clip-path-5)">
              <path id="Path_8375" data-name="Path 8375" d="M163.3,99.872a42.552,42.552,0,0,0,3.379,15.32c1.477-1.823,3.115-3.754,5.362-4.291,2.8-.671,5.635,1.062,7.659,3.165a13.892,13.892,0,0,0-2.446-5.852,6.859,6.859,0,0,0-5.377-2.811,4.76,4.76,0,0,0-4.527,3.691l-3.888-9.132" transform="translate(-163.304 -99.872)"/>
            </g>
          </g>
        </g>
        <path id="Path_8376" data-name="Path 8376" d="M149.89,116.016c-.132,0-.087-1.42-.5-3.637a22.144,22.144,0,0,0-3.3-8.067,23.675,23.675,0,0,0-3.1-3.686,20.99,20.99,0,0,0-3.109-2.42c-1.9-1.2-3.249-1.666-3.2-1.789.016-.046.359.039.973.237a6.971,6.971,0,0,1,1.093.426,11.783,11.783,0,0,1,1.393.7,18.481,18.481,0,0,1,3.3,2.371,22.011,22.011,0,0,1,3.246,3.771,20.153,20.153,0,0,1,3.2,8.381,14.162,14.162,0,0,1,.133,2.724,2.793,2.793,0,0,1-.128.992" transform="translate(48.734 34.374)" fill="#263238"/>
        <path id="Path_8377" data-name="Path 8377" d="M218.57,46.325a29.065,29.065,0,0,0-29.654-25.97l-1.5.039c-16.2,1.365-24.094,15.888-22.282,32.046l4.445,56.833,1.883,2.31a30.412,30.412,0,0,0,36.094,8.507l-1.245-18.284s15.537-2.827,15.329-18.428c-.1-7.537-1.572-23.041-3.066-37.054" transform="translate(58.788 7.254)" fill="#ffbe9d"/>
        <path id="Path_8378" data-name="Path 8378" d="M200.919,81.81a37.834,37.834,0,0,1-20.59-5.456s5.1,11.1,20.621,9.3Z" transform="translate(64.298 27.225)" fill="#eb996e"/>
        <path id="Path_8379" data-name="Path 8379" d="M201.989,49.523a2.228,2.228,0,0,1-2.089,2.3,2.131,2.131,0,0,1-2.347-1.949,2.228,2.228,0,0,1,2.088-2.3,2.132,2.132,0,0,1,2.348,1.951" transform="translate(70.439 16.96)" fill="#263238"/>
        <path id="Path_8380" data-name="Path 8380" d="M203.6,42.813c-.176.274-1.947.461-4.053,1.6-2.112,1.122-3.378,2.563-3.674,2.542-.142,0-.015-.395.532-1.031a10.339,10.339,0,0,1,2.858-2.213,9.252,9.252,0,0,1,3.31-1.1c.777-.072,1.118.068,1.027.2" transform="translate(69.821 15.188)" fill="#263238"/>
        <path id="Path_8381" data-name="Path 8381" d="M185.392,50.395a2.228,2.228,0,0,1-2.09,2.3,2.13,2.13,0,0,1-2.347-1.949,2.229,2.229,0,0,1,2.088-2.3,2.132,2.132,0,0,1,2.35,1.951" transform="translate(64.52 17.271)" fill="#263238"/>
        <path id="Path_8382" data-name="Path 8382" d="M186.214,45.829c-.312.068-1.765-.914-4.089-1.487s-4.209-.44-4.418-.638c-.1-.091.244-.266,1.074-.339a11.435,11.435,0,0,1,3.591.345,10.151,10.151,0,0,1,3.2,1.351c.627.437.791.741.642.768" transform="translate(63.357 15.452)" fill="#263238"/>
        <path id="Path_8383" data-name="Path 8383" d="M191.335,64.147a15.892,15.892,0,0,1,3.874-.8c.61-.079,1.187-.216,1.279-.636a3.123,3.123,0,0,0-.454-1.8q-.92-2.2-1.93-4.614c-2.685-6.571-4.644-11.978-4.379-12.086s2.656,5.133,5.341,11.7c.647,1.621,1.266,3.165,1.854,4.644a3.542,3.542,0,0,1,.38,2.394,1.538,1.538,0,0,1-.983.921,4.13,4.13,0,0,1-1.035.171c-2.427.191-3.934.241-3.946.106" transform="translate(67.64 15.762)" fill="#263238"/>
        <path id="Path_8384" data-name="Path 8384" d="M186.885,38.881c-.267.639-2.644.214-5.47.416-2.83.145-5.136.857-5.48.256-.153-.288.273-.88,1.218-1.466a9.536,9.536,0,0,1,8.341-.511c1.013.464,1.507,1,1.39,1.305" transform="translate(62.721 13.139)" fill="#263238"/>
        <path id="Path_8385" data-name="Path 8385" d="M204.185,39.379c-.521.549-2.586.005-5.061,0-2.476-.072-4.569.412-5.057-.153-.214-.274.11-.823,1.021-1.347a8.327,8.327,0,0,1,4.1-.935A8.16,8.16,0,0,1,203.243,38c.879.551,1.172,1.108.943,1.377" transform="translate(69.174 13.174)" fill="#263238"/>
        <path id="Path_8386" data-name="Path 8386" d="M224.013,34.988a2.98,2.98,0,0,0-3.124-2.4,6.311,6.311,0,0,0,2.152-1.1,2.147,2.147,0,0,0,.737-2.175c-.4-1.206-1.943-1.454-3.166-1.8a8.019,8.019,0,0,1-4.068-2.716c-1.483-1.872-2.054-4.308-3.334-6.326A10.363,10.363,0,0,0,197.131,16.7a10.787,10.787,0,0,0-17.349,2.644A12.586,12.586,0,0,0,162.546,33.12l9.716,5.954a5.247,5.247,0,0,1,6.4-4.553c2.932.848,4.808,4.243,7.852,4.474,2.37.18,4.387-1.656,6.682-2.272,2.786-.746,5.727.369,8.24,1.785s4.9,3.176,7.7,3.882a16.087,16.087,0,0,0,9.9-1.179,10.332,10.332,0,0,0,3.664-2.267,4.572,4.572,0,0,0,1.321-3.957" transform="translate(57.895 4.795)" fill="#263238"/>
        <path id="Path_8387" data-name="Path 8387" d="M174.452,32.726l44.49-.255A20.355,20.355,0,0,0,212.2,25.1a34.754,34.754,0,0,0-20.333-6.686c-7.255.075-21.77,9.317-26.884,14.462-4.093,4.117-3.969,7.579-3.969,7.579-.507,5.783,2.9,12.247,4.341,17.871.742,2.9,2.264,11.7,2.264,11.7h0c2.45-.076,3.306-2.051,2.866-4.463l-.722-9.489s8.168-6.153,3.919-16.88c-.659-.845-2.12-4.768.769-6.461" transform="translate(57.393 6.564)" fill="#263238"/>
        <path id="Path_8388" data-name="Path 8388" d="M171.2,52.067c-2.264-7.879-4.344-16.321-1.937-24.158l-1.321-.054-.551.4A6.224,6.224,0,0,0,160.4,37.85a5.379,5.379,0,0,0-5.4,4.709,9.994,9.994,0,0,0,1.431,5.2,12.126,12.126,0,0,1,1.69,5.143c.012,1.821-1.153,3.8-2.961,4.014a4.446,4.446,0,0,0,5.04,2.449,8.8,8.8,0,0,1-3.055,3.854c2.9,1.974,6.876,1.3,10.029-.236a8.507,8.507,0,0,0,4.469-4.143c.845-2.143.2-4.554-.435-6.769" transform="translate(55.258 9.932)" fill="#263238"/>
        <path id="Path_8389" data-name="Path 8389" d="M169.085,52.577c-.269-.109-10.8-2.894-10.184,7.76s11.185,7.84,11.185,7.533-1-15.293-1-15.293" transform="translate(56.649 18.602)" fill="#ffbe9d"/>
        <path id="Path_8390" data-name="Path 8390" d="M166.575,63.073c-.049-.031-.179.141-.484.3a1.856,1.856,0,0,1-1.385.109c-1.149-.349-2.2-2.08-2.363-4a6.14,6.14,0,0,1,.366-2.687,2.148,2.148,0,0,1,1.313-1.5.947.947,0,0,1,1.125.445c.16.29.1.506.163.521.031.024.218-.193.107-.627a1.189,1.189,0,0,0-.457-.643,1.4,1.4,0,0,0-1.042-.212,2.613,2.613,0,0,0-1.844,1.764,6.3,6.3,0,0,0-.472,3.006c.193,2.143,1.407,4.089,2.974,4.444a1.991,1.991,0,0,0,1.681-.38c.313-.282.357-.524.319-.54" transform="translate(57.613 19.524)" fill="#eb996e"/>
        <path id="Path_8391" data-name="Path 8391" d="M158.3,51.907c-.031.022-.3-.4-.2-1.239a4.013,4.013,0,0,1,1.991-2.777,12.279,12.279,0,0,1,4.881-1.179c1.792-.194,3.839-.7,4.863-2.47a8.854,8.854,0,0,0,.834-5.592c-.254-1.789-.727-3.414-.962-4.813-.563-2.82-.023-4.619.073-4.572a20.457,20.457,0,0,0,.5,4.454c.3,1.359.83,2.94,1.144,4.824a9.312,9.312,0,0,1-.884,6.133,5.272,5.272,0,0,1-2.538,2.149,10.693,10.693,0,0,1-2.944.647,12.668,12.668,0,0,0-4.684.933,3.858,3.858,0,0,0-1.959,2.326,9.248,9.248,0,0,0-.122,1.175" transform="translate(56.367 10.435)" fill="#455a64"/>
        <path id="Path_8392" data-name="Path 8392" d="M156.447,47.581c-.042.016-.235-.3-.328-.963a4.626,4.626,0,0,1,.53-2.742,4.84,4.84,0,0,1,1.266-1.521,5.468,5.468,0,0,1,2.046-.955,5.886,5.886,0,0,0,2.023-.83,2.453,2.453,0,0,0,.8-1.952c.031-.813-.092-1.666-.073-2.522a12.523,12.523,0,0,1,.273-2.419,11.644,11.644,0,0,1,1.527-3.808,2.935,2.935,0,0,1,2.359-1.5c.705.007,1,.324.969.351-.028.065-.355-.121-.944-.028a2.711,2.711,0,0,0-1.887,1.49,12.292,12.292,0,0,0-1.275,3.645,12.639,12.639,0,0,0-.209,2.275c-.011.785.119,1.621.088,2.548a3.235,3.235,0,0,1-1.126,2.557,6.282,6.282,0,0,1-2.325.931,4.414,4.414,0,0,0-3.006,2.029,5.986,5.986,0,0,0-.708,3.413" transform="translate(55.654 10.115)" fill="#455a64"/>
        <path id="Path_8393" data-name="Path 8393" d="M214.769,23.3c.066.015-.8.581-2.2-.076a6.28,6.28,0,0,1-2.012-1.713,8.631,8.631,0,0,0-2.474-2.195,7.4,7.4,0,0,0-8.035.532c-1.319.956-2.484,2.29-4.017,3.406a6.906,6.906,0,0,1-2.667,1.233,5.774,5.774,0,0,1-3.033-.288c-1.921-.689-3.436-1.867-5.094-2.468a13.465,13.465,0,0,0-5-.9,13.229,13.229,0,0,0-8.07,2.776,14.575,14.575,0,0,0-3.809,4.464c-.663,1.237-.9,1.99-.973,1.967-.027-.008.01-.2.106-.567a11.4,11.4,0,0,1,.578-1.545,13.8,13.8,0,0,1,3.732-4.778,13.584,13.584,0,0,1,8.424-3.082,14.01,14.01,0,0,1,5.306.906c1.788.65,3.334,1.831,5.076,2.443a4.959,4.959,0,0,0,2.607.259,6.109,6.109,0,0,0,2.348-1.084c1.433-1.024,2.626-2.359,4.038-3.363a7.741,7.741,0,0,1,4.656-1.541,8.226,8.226,0,0,1,4.121,1.118,8.859,8.859,0,0,1,2.538,2.407,6.309,6.309,0,0,0,1.8,1.724,3.018,3.018,0,0,0,2.054.365" transform="translate(59.679 6.306)" fill="#455a64"/>
        <path id="Path_8394" data-name="Path 8394" d="M186.59,60.964c.338-.077.726,2.2,2.948,3.489s4.6.629,4.676.946c.056.138-.467.533-1.487.734a5.753,5.753,0,0,1-3.881-.661,5.009,5.009,0,0,1-2.327-2.949c-.246-.939-.087-1.545.071-1.559" transform="translate(66.46 21.737)" fill="#263238"/>
        <path id="Path_8395" data-name="Path 8395" d="M296.376,218.521a20.852,20.852,0,0,0-14.989-4.945l-9.165,29.134c6.718.3,13.419,3.76,19.9,1.985a14.2,14.2,0,0,0,9.881-11.668,16.871,16.871,0,0,0-5.632-14.506" transform="translate(97.064 76.14)" fill="#ff725e"/>
        <path id="Path_8396" data-name="Path 8396" d="M281.114,213.165c.019-.236,1-.418,2.777-.4a22.588,22.588,0,0,1,7.5,1.414,20.418,20.418,0,0,1,9.136,7.095,18.914,18.914,0,0,1,3.048,6.319,16.676,16.676,0,0,1,.227,7.643,15.425,15.425,0,0,1-3.332,6.955,14.542,14.542,0,0,1-5.915,4.1,21.14,21.14,0,0,1-11.532.745,35.886,35.886,0,0,1-7.187-2.232c-1.616-.7-2.461-1.209-2.39-1.441s1.059-.167,2.778.121c1.717.271,4.166.807,7.148,1.077a20.563,20.563,0,0,0,9.961-1.287,11.755,11.755,0,0,0,4.485-3.309,12.52,12.52,0,0,0,2.523-5.441,15.025,15.025,0,0,0-2.483-11.388,19.586,19.586,0,0,0-7.469-6.67,33.95,33.95,0,0,0-6.688-2.34c-1.666-.43-2.611-.712-2.591-.962" transform="translate(97.5 75.864)" fill="#f5f5f5"/>
        <path id="Path_8397" data-name="Path 8397" d="M221.718,293.615l-19.943,55.873,69.387,25.167c2-6.775-29.072-33.1-29.072-33.1l14.247-35.275Z" transform="translate(71.945 104.692)" fill="#ff725e"/>
        <g id="Group_7969" data-name="Group 7969" transform="translate(290.521 435.431)" opacity="0.6">
          <g id="Group_7968" data-name="Group 7968">
            <g id="Group_7967" data-name="Group 7967" clip-path="url(#clip-path-6)">
              <path id="Path_8398" data-name="Path 8398" d="M217.31,321.005a3.015,3.015,0,0,0-3.132,2.523,2.9,2.9,0,0,0,2.473,3.127c1.473.145,3.288-1.209,3.3-2.689s-1.468-3.18-2.934-2.967" transform="translate(-214.16 -320.982)" fill="#fff"/>
            </g>
          </g>
        </g>
        <path id="Path_8399" data-name="Path 8399" d="M201.776,336.284l2.013-5.639L269.7,356.937s2.6,2.465,1.464,4.515Z" transform="translate(71.946 117.895)" fill="#fff"/>
        <path id="Path_8400" data-name="Path 8400" d="M234.446,329.261c-.134.335-1.884-.126-3.946.359-2.076.43-3.466,1.586-3.729,1.339-.289-.179.952-2.021,3.458-2.564,2.5-.567,4.4.581,4.218.865" transform="translate(80.843 117.038)" fill="#263238"/>
        <path id="Path_8401" data-name="Path 8401" d="M238.652,333.268c-.041.357-1.717.4-3.389,1.416-1.7.966-2.553,2.411-2.884,2.274-.338-.062.148-2.131,2.249-3.355,2.089-1.241,4.133-.661,4.024-.335" transform="translate(82.823 118.68)" fill="#263238"/>
        <path id="Path_8402" data-name="Path 8402" d="M237.735,341.987c-.334-.039-.191-1.9,1.351-3.443s3.4-1.7,3.436-1.37c.091.349-1.3.97-2.548,2.255-1.275,1.253-1.891,2.647-2.24,2.559" transform="translate(84.714 120.171)" fill="#263238"/>
        <path id="Path_8403" data-name="Path 8403" d="M236.086,323.545c-.254.258-1.639-.773-3.6-1.339-1.951-.6-3.675-.5-3.745-.856-.107-.316,1.8-1.042,4.1-.345,2.306.678,3.505,2.333,3.242,2.539" transform="translate(81.558 114.354)" fill="#263238"/>
        <path id="Path_8404" data-name="Path 8404" d="M237.551,318.628c-.046.141-1.462-.134-3.469-1.279a16.584,16.584,0,0,1-3.23-2.435,17.537,17.537,0,0,1-1.612-1.783,4.555,4.555,0,0,1-.753-1.2,1.573,1.573,0,0,1,.5-1.859,1.974,1.974,0,0,1,1.765-.236,4.781,4.781,0,0,1,1.239.652,13.278,13.278,0,0,1,1.892,1.525,13.049,13.049,0,0,1,2.442,3.265c1.069,2.074,1.16,3.539,1.02,3.562-.194.056-.593-1.289-1.785-3.113a14.8,14.8,0,0,0-2.466-2.87,13.782,13.782,0,0,0-1.773-1.339c-.665-.46-1.289-.692-1.6-.433-.114.1-.141.145-.065.416a3.713,3.713,0,0,0,.555.876,19.3,19.3,0,0,0,1.456,1.715,20.472,20.472,0,0,0,2.892,2.506c1.788,1.278,3.062,1.846,2.99,2.027" transform="translate(81.427 110.439)" fill="#263238"/>
        <path id="Path_8405" data-name="Path 8405" d="M234.723,319.2c-.14.009-.37-1.449.3-3.689a11.98,11.98,0,0,1,3.5-5.422,3.054,3.054,0,0,1,2.853-.951,1.728,1.728,0,0,1,1.1,1.495,5.055,5.055,0,0,1-.106,1.4,8.222,8.222,0,0,1-.846,2.341,8.507,8.507,0,0,1-2.786,3.052c-2.008,1.306-3.569,1.2-3.556,1.073-.052-.212,1.367-.437,3.031-1.788a8.507,8.507,0,0,0,2.283-2.866,7.642,7.642,0,0,0,.665-2.031c.159-.777.1-1.472-.2-1.5a2.112,2.112,0,0,0-1.628.7,12.2,12.2,0,0,0-1.544,1.572,13.236,13.236,0,0,0-1.93,3.223c-.834,2-.933,3.4-1.135,3.385" transform="translate(83.638 110.197)" fill="#263238"/>
        <path id="Path_8406" data-name="Path 8406" d="M180.064,183.967c-10.526.244-20.51,1.731-27.759,9.366-9.615,10.125-21.506,24.548-22.181,34.552-1.009,14.951,8.01,19.395,14.6,23.04a18.275,18.275,0,0,0,9.56,2.211l121.658-.924,3.819-20.606L201.07,212.213l3.268-29.615Z" transform="translate(46.369 65.107)" fill="#263238"/>
        <path id="Path_8407" data-name="Path 8407" d="M185.672,183.063l38.271-1.762s66.112,3.675,80.214,16.6S316.5,225.52,311.8,239.621s-46.124,104.3-46.124,104.3,3.359,5.734,1.469,11.457a15.122,15.122,0,0,1-10.8,10.29l-36.79-13.521s-4.995-1.762-1.469-6.464,5.875-5.582,5.875-5.582v-9.4s12.927-23.5,14.1-26.735,13.566-51.066,13.566-51.066l8.23-14.145s-19.9-9.359-37.156-16.142l-40.29-9.93Z" transform="translate(65.038 64.645)" fill="#263238"/>
        <path id="Path_8408" data-name="Path 8408" d="M236.939,308.426c-.075.09-1.234-.829-3.229-2.116a43.613,43.613,0,0,0-17.18-6.532c-2.345-.362-3.823-.446-3.819-.563a14.362,14.362,0,0,1,3.882.066,36.687,36.687,0,0,1,17.4,6.613,14.364,14.364,0,0,1,2.949,2.531" transform="translate(75.845 106.658)" fill="#455a64"/>
        <path id="Path_8409" data-name="Path 8409" d="M247.414,305.689a12.768,12.768,0,0,1-2.137-2.251c-1.241-1.457-2.892-3.522-4.623-5.873s-3.211-4.544-4.232-6.163a12.829,12.829,0,0,1-1.513-2.709,14.557,14.557,0,0,1,1.926,2.428l4.388,6.025c1.65,2.219,3.145,4.23,4.445,5.981a14.562,14.562,0,0,1,1.745,2.561" transform="translate(83.757 102.936)" fill="#455a64"/>
        <path id="Path_8410" data-name="Path 8410" d="M259.52,214.135c.022.115-1.351.407-3.486,1.116a36.612,36.612,0,0,0-14.736,9.2c-1.574,1.608-2.439,2.712-2.533,2.641a12.591,12.591,0,0,1,2.168-2.982,31.267,31.267,0,0,1,14.957-9.337,12.621,12.621,0,0,1,3.63-.639" transform="translate(85.133 76.345)" fill="#455a64"/>
        <path id="Path_8411" data-name="Path 8411" d="M226.323,279.78a3.479,3.479,0,0,1,.151-.795c.148-.587.335-1.329.564-2.242.545-2.029,1.291-4.812,2.2-8.21,1.949-7,4.6-16.505,7.53-27.013,1.526-5.268,2.837-10.294,4.308-14.844a30.967,30.967,0,0,1,6.927-10.569,39.535,39.535,0,0,1,6.577-5.421c.851-.54,1.515-.95,1.985-1.2a3.55,3.55,0,0,1,.726-.358c.033.054-.921.625-2.554,1.78a43.667,43.667,0,0,0-6.372,5.54,31.132,31.132,0,0,0-6.677,10.45c-1.412,4.485-2.721,9.569-4.242,14.819-3,10.484-5.726,19.97-7.727,26.949-1,3.372-1.822,6.133-2.42,8.146-.282.9-.511,1.628-.692,2.206a3.394,3.394,0,0,1-.288.757" transform="translate(80.696 74.568)" fill="#455a64"/>
        <path id="Path_8412" data-name="Path 8412" d="M202.139,218.838c-.194.018-1-7.138-1.8-15.98s-1.287-16.028-1.093-16.045,1,7.137,1.8,15.982,1.287,16.026,1.093,16.044" transform="translate(71.03 66.61)" fill="#455a64"/>
        <path id="Path_8413" data-name="Path 8413" d="M159.051,228.131c-.107.053-.7-1.106-1.9-2.8a27.534,27.534,0,0,0-12.57-9.82c-1.936-.752-3.2-1.045-3.177-1.161a10.329,10.329,0,0,1,3.345.69,24.127,24.127,0,0,1,12.817,10.014,10.3,10.3,0,0,1,1.481,3.079" transform="translate(50.42 76.421)" fill="#455a64"/>
        <path id="Path_8414" data-name="Path 8414" d="M180.36,207.105c-.068.109-1.69-.932-4.5-2.21a42.419,42.419,0,0,0-23.519-3.374c-3.056.437-4.905.978-4.941.855a5.025,5.025,0,0,1,1.268-.482,27.524,27.524,0,0,1,3.594-.867,38.514,38.514,0,0,1,23.812,3.417,27.53,27.53,0,0,1,3.2,1.842,4.941,4.941,0,0,1,1.083.818" transform="translate(52.557 71.47)" fill="#455a64"/>
        <path id="Path_8415" data-name="Path 8415" d="M263.7,223.552a5.035,5.035,0,0,1-.954-.157l-2.7-.586-9.916-2.229c-8.374-1.876-19.958-4.39-32.8-6.935s-24.516-4.63-32.973-6.087l-10.017-1.717-2.721-.487a5.081,5.081,0,0,1-.941-.217,5.008,5.008,0,0,1,.963.077l2.742.357c2.379.322,5.816.83,10.056,1.5,8.481,1.331,20.173,3.344,33.028,5.886s24.426,5.14,32.775,7.141c4.174,1,7.547,1.838,9.868,2.447l2.671.715a5.06,5.06,0,0,1,.92.3" transform="translate(60.857 73.141)" fill="#455a64"/>
        <path id="Path_8416" data-name="Path 8416" d="M187.967,211.922a42.1,42.1,0,0,0-1.685-3.888,17.1,17.1,0,0,0-2.784-3.6,44.7,44.7,0,0,0-4.26-3.683,64.379,64.379,0,0,0-8.715-5.413,28.4,28.4,0,0,1-3.722-2.118,23.525,23.525,0,0,1,3.949,1.673,50.629,50.629,0,0,1,8.919,5.3,39.393,39.393,0,0,1,4.3,3.792,16.042,16.042,0,0,1,2.755,3.816,13.273,13.273,0,0,1,1.087,2.975,3.354,3.354,0,0,1,.157,1.149" transform="translate(59.475 68.893)" fill="#455a64"/>
        <path id="Path_8417" data-name="Path 8417" d="M283.822,220.567c.156.151-1.879,2.207-3.463,5.334-1.617,3.111-2.1,5.963-2.316,5.924-.175,0,.007-3.006,1.688-6.247,1.652-3.252,3.99-5.154,4.091-5.011" transform="translate(99.121 78.643)" fill="#263238"/>
        <g id="Group_7972" data-name="Group 7972" transform="translate(295.867 160.19)" opacity="0.3">
          <g id="Group_7971" data-name="Group 7971">
            <g id="Group_7970" data-name="Group 7970" clip-path="url(#clip-path-7)">
              <path id="Path_8418" data-name="Path 8418" d="M218.1,118.085l8.708,61.344.435.981a131.627,131.627,0,0,0-9.143-62.325" transform="translate(-218.101 -118.085)"/>
            </g>
          </g>
        </g>
        <path id="Path_8419" data-name="Path 8419" d="M278.5,144.488l-28.317,49.524-69.769,1.517-.174,3.159,67.555-.5,2.142-.073,71.339.141,14.415-24.862L354.106,147a2.605,2.605,0,0,0-2.146-4.1l-71.21.271a2.61,2.61,0,0,0-2.251,1.313" transform="translate(64.267 50.954)" fill="#e0e0e0"/>
        <path id="Path_8420" data-name="Path 8420" d="M300.91,165.379s3.665,3.359,3.088,6.214-.385,4.977-3.088,5.17a4.108,4.108,0,0,1-3.665,4.245s.827,4.475-4.382,5.247c0,0-1.6,4.786-4.878,3.629a28.94,28.94,0,0,1-5.4-2.508l-.965-1.736s-4.832-1.816-3.642-4.546c.723-1.656,3.222-2.086,3.222-2.086s-1.039-2.43.309-4.243c1.159-1.557,4.931-.27,4.931-.27a5.318,5.318,0,0,1,1.2-3.693c1.285-1.523,7.29,2.615,7.29,2.615L298.2,169.5Z" transform="translate(99.048 58.968)" fill="#ffbe9d"/>
        <path id="Path_8421" data-name="Path 8421" d="M291.966,182.676c-.1.165-2.8-1.323-6.019-3.324s-5.749-3.759-5.647-3.925,2.8,1.323,6.019,3.325,5.75,3.758,5.647,3.923" transform="translate(99.943 62.547)" fill="#eb996e"/>
        <path id="Path_8422" data-name="Path 8422" d="M294.972,178.616c-.1.167-2.6-1.156-5.586-2.955s-5.322-3.393-5.221-3.56,2.6,1.156,5.586,2.955,5.322,3.393,5.221,3.56" transform="translate(101.321 61.36)" fill="#eb996e"/>
        <path id="Path_8423" data-name="Path 8423" d="M287.729,169.666c.109-.2,2.348.981,4.953,2.63a45.24,45.24,0,0,1,4.658,3.09c-.1.231-2.428-.826-5.033-2.491a27.406,27.406,0,0,1-4.578-3.23" transform="translate(102.592 60.489)" fill="#eb996e"/>
        <path id="Path_8424" data-name="Path 8424" d="M334.981,144.383a1.246,1.246,0,0,1-.342.037l-1,.035-3.853.066-14.167.113-46.738.1h-3.4a2.806,2.806,0,0,0-2.594,1.225q-1.612,2.9-3.172,5.718L253.7,162.536,243.481,180.9l-6.943,12.347q-1.217,2.116-1.918,3.34c-.208.347-.377.629-.514.86a1.207,1.207,0,0,1-.2.281,1.284,1.284,0,0,1,.133-.316l.453-.894q.657-1.243,1.8-3.4l6.746-12.457c2.88-5.263,6.3-11.506,10.087-18.434l5.978-10.874q1.569-2.837,3.188-5.767a3.52,3.52,0,0,1,3.18-1.544h3.4l46.738.1,14.167.113,3.853.066,1,.035a1.286,1.286,0,0,1,.343.034" transform="translate(83.403 51.352)" fill="#263238"/>
        <path id="Path_8425" data-name="Path 8425" d="M271.662,162.963a3.01,3.01,0,1,0,4.5-.532,3.216,3.216,0,0,0-4.5.532" transform="translate(96.52 57.669)" fill="#fff"/>
        <g id="Group_7975" data-name="Group 7975" transform="translate(168.835 199.801)" opacity="0.3">
          <g id="Group_7974" data-name="Group 7974">
            <g id="Group_7973" data-name="Group 7973" clip-path="url(#clip-path-8)">
              <path id="Path_8426" data-name="Path 8426" d="M125.759,148.963c-.605.244-1.294.647-1.3,1.3a1.2,1.2,0,0,0,1,1.065,13.8,13.8,0,0,0,2.9-.776c7.332-1.62,13.378-.068,20.367,2.678l.227-.232c-2.789-5.885-15.3-7.211-23.193-4.034" transform="translate(-124.458 -147.285)"/>
            </g>
          </g>
        </g>
        <path id="Path_8427" data-name="Path 8427" d="M548.109,351.6c0,.2-122.708.353-274.042.353C122.682,351.953,0,351.795,0,351.6s122.682-.353,274.068-.353c151.334,0,274.042.157,274.042.353" transform="translate(0 125.242)" fill="#263238"/>
        <path id="Path_8428" data-name="Path 8428" d="M219.451,55.633l19.16,2.111a44.923,44.923,0,1,1-6.739,14.613l-.012.022Z" transform="translate(78.248 13.798)" fill="#fafafa"/>
        <path id="Path_8429" data-name="Path 8429" d="M219.451,55.7,232,72.341l-.294.019.012-.022a.176.176,0,0,1,.324.129,44.678,44.678,0,0,0,.3,23.161,39.984,39.984,0,0,0,2.48,6.589c.545,1.081,1.062,2.2,1.652,3.3l2.013,3.212a44.8,44.8,0,0,0,27.324,18.349,44.2,44.2,0,0,0,18.665.085,45.177,45.177,0,0,0,17.867-8.276,43.68,43.68,0,0,0,12.958-15.9,44.48,44.48,0,0,0,4.445-20.465,45.227,45.227,0,0,0-5.025-19.427A43.731,43.731,0,0,0,302.6,48.467,45.059,45.059,0,0,0,270.52,39.3a48.2,48.2,0,0,0-14.042,3.884,44.565,44.565,0,0,0-17.726,14.724.17.17,0,0,1-.157.071L219.451,55.7l19.179,1.943-.157.071a44.68,44.68,0,0,1,17.8-14.972,48.534,48.534,0,0,1,14.188-3.988,45.572,45.572,0,0,1,32.533,9.2,44.324,44.324,0,0,1,12.328,14.818A45.84,45.84,0,0,1,320.442,82.5a45.119,45.119,0,0,1-4.509,20.789,44.31,44.31,0,0,1-13.168,16.151,45.781,45.781,0,0,1-18.152,8.386,44.778,44.778,0,0,1-18.946-.117,45.315,45.315,0,0,1-27.645-18.67q-1.028-1.652-2.025-3.26c-.593-1.112-1.112-2.245-1.659-3.341a40.429,40.429,0,0,1-2.477-6.676,44.825,44.825,0,0,1-.159-23.383l.324.13-.012.022a.174.174,0,0,1-.237.069.171.171,0,0,1-.057-.05C223.971,61.911,220.185,56.71,219.451,55.7" transform="translate(78.248 13.73)" fill="#263238"/>
        <path id="Path_8430" data-name="Path 8430" d="M248.5,60.075a4.509,4.509,0,0,1,.034.62c.009.445.02,1.019.035,1.739.019,1.567.046,3.759.08,6.521.038,5.624.092,13.553.156,23.045L248.5,91.7l31.921-.047c.081-.076-.666.666-.35.347V89.819q0-1.087,0-2.165,0-2.155,0-4.268,0-4.224.009-8.252c.012-5.357.024-10.414.035-15.059l.305.305-23.047-.156-6.52-.08-1.738-.035a4.8,4.8,0,0,1-.621-.034,3.143,3.143,0,0,1,.553-.034l1.679-.035,6.45-.08,23.241-.156.305,0v.308c.011,4.645.023,9.7.035,15.059q0,4.021.009,8.252,0,2.112,0,4.268v4.341c.316-.313-.429.437-.357.358L248.5,92.305H248.2V92c.064-9.572.118-17.569.156-23.241.034-2.732.061-4.9.08-6.452.015-.695.026-1.249.035-1.679a3.176,3.176,0,0,1,.035-.553" transform="translate(88.497 21.311)" fill="#00c08b"/>
        <path id="Path_8431" data-name="Path 8431" d="M275.314,63.888c.459.364-3.836,6.548-9.594,13.813-1.149,1.45-2.27,2.834-3.311,4.091l-.682.825-.764-.688c-4.987-4.49-8.37-7.939-8.063-8.293s4.209,2.492,9.378,6.771l-1.446.137c.986-1.3,2.077-2.708,3.226-4.158,5.759-7.266,10.8-12.862,11.257-12.5" transform="translate(90.167 22.774)" fill="#32b090"/>
      </g>
    </g>
  </g>
</svg>
