<svg xmlns="http://www.w3.org/2000/svg" width="588.323" height="492.823" viewBox="0 0 588.323 492.823">
  <g id="left_flowers" data-name="left flowers" transform="translate(142 -70.119)">
    <path id="Path_643" data-name="Path 643" d="M363.956-199.134c-2.44-1.9-21.552-16.746-20.427-5.6.652,6.469,13.357,14.69,16.082,18.872-3.516,5-16.534,16.463-17.857,21.9-2.188,8.992,6.936,3.925,9.913,1.865,2.262-1.566,9.712-8.1,11.358-8.549,0,28.105,12.726,26.859,12.726-2.913,3.847,2.669,21.7,20.67,22.348,10.325.508-8.074-14.668-16.844-18-21.98,3.195-4.92,14.693-11.394,18.111-17.7,3.13-5.77-2.1-9.018-7.528-7.2-3.749,1.253-7.926,4.444-11.114,6.867-6.6,5.015-4.158,2.384-4.832-6.8-.186-2.53-1.091-14.3-2.657-15.713-7.335-6.636-8.117,23.157-8.12,26.631Z" transform="translate(-182.604 399.845)" fill="#fb7c6a" fill-rule="evenodd"/>
    <path id="Path_644" data-name="Path 644" d="M200.834-228.19c-49.973,6.857-83.544,42.012-97.59,91.429-6.013,21.15-11.183,54.568-22.173,72.586C63.435-35.263,35.9-55.546,11.878-57.444c-98.851-7.822-86.645,204.231,76.75,166.935,84.594-19.305,100.839,6.453,164.817,2.248,49.12-3.227,86.968-52.131,88.139-101.781,1.355-57.467-36.133-93.035-47.437-143.708-12.57-56.345-19.386-104.577-93.313-94.44Z" transform="translate(33.33 402.665)" fill="none" stroke="#98966a" stroke-width="1" fill-rule="evenodd"/>
    <g id="Group_1593" data-name="Group 1593">
      <g id="Group_1513" data-name="Group 1513" transform="translate(-142 70.119)">
        <path id="Path_539" data-name="Path 539" d="M2015.741,1095.2c0,4.269-.137,8.544.037,12.806a20.872,20.872,0,0,0,3.638,11.5c3.724,5.221,9.281,5.993,14.032,1.66,5.783-5.276,7.276-12.169,6.405-19.666-.864-7.448-3.969-14.156-7.278-20.764a156.756,156.756,0,0,1-11.468-28.58c-2.275-8.289-3.768-16.658-1.7-25.268a28.606,28.606,0,0,1,4.3-10.105c5.719-8.041,15.291-8.588,21.809-1.127,4.5,5.146,6.462,11.446,7.344,18.076a114.867,114.867,0,0,1,1.054,12.749c.179,8.769,3.548,15.759,10.738,20.876,1.9,1.349,3.633,2.917,5.486,4.326,21.18,16.1,24.373,39.812,15.785,61.539a64.237,64.237,0,0,1-11.83,19.249c-4.39,4.926-8.934,9.712-13.428,14.544a121.314,121.314,0,0,0-12.518,15.311,52.849,52.849,0,0,0-7.168,14.559c-2.474,8.593-1.034,13.432,6.136,18.841a72.416,72.416,0,0,0,27.039,13.108c16.125,3.825,27.059-3.839,29.178-20.314.966-7.507.851-15.095,2.115-22.583,2.026-12,8.03-21.286,18.25-27.821a110.833,110.833,0,0,1,10.553-6.158c11.606-5.724,16.285-14.839,14.4-27.626-.849-5.748-1.229-11.573-1.608-17.379a44.983,44.983,0,0,1,1.627-16.129,25.051,25.051,0,0,1,4.214-8.247c6.05-7.761,15.814-8.55,22.827-1.594,6.729,6.674,8.542,15,7.1,24.14-1.01,6.423-3.729,12.222-6.9,17.82-3.439,6.079-7.007,12.087-10.394,18.195a71.841,71.841,0,0,0-7.241,18.35,21.584,21.584,0,0,0-.388,9.809c.922,4.066,3.572,5.332,7.413,3.711a18.552,18.552,0,0,0,6.811-5.351c3.393-3.991,6.7-8.061,9.988-12.138a89.112,89.112,0,0,1,10.617-11.567c3.982-3.462,8.253-6.43,13.494-7.757,9.615-2.434,18.081,3.4,19.17,13.309a26.145,26.145,0,0,1-5.9,20.1,56.268,56.268,0,0,1-11.093,10.24c-11.377,8.116-22.832,16.118-35.22,22.673a42.71,42.71,0,0,0-11.666,8.588,25.031,25.031,0,0,0-6.793,13.272c-1.155,7.44,3.733,11.754,10.842,9.452a50.228,50.228,0,0,0,12.352-6.44c5.155-3.462,10.257-7.005,15.5-10.332a58.568,58.568,0,0,1,18.7-7.827,31.45,31.45,0,0,1,10.994-.547c6.07.8,9.679,4.708,10.249,10.837a23.105,23.105,0,0,1-2.315,12.451c-9.045,18.418-23.5,30-43.763,33.963-6.88,1.343-13.512-.267-19.952-2.628a87.577,87.577,0,0,0-21.954-5.453,50.346,50.346,0,0,0-20.078,2.341,19.443,19.443,0,0,0-3.19,1.4c-2.077,1.1-4.258,2.249-4.225,5.034.033,2.677,1.951,4.177,4.055,5.263,7.7,3.98,16.069,5.612,24.572,6.657a99.863,99.863,0,0,1,14.332,2.4c5.351,1.466,10.109,3.958,13.732,8.295,4.5,5.386,5.073,11.1,1.759,17.284a20.268,20.268,0,0,1-4.26,5.5,45.585,45.585,0,0,1-5.415,4.392c-22.5,14.762-33.8,11.24-50.449-1.2-7.611-5.687-14.667-12.107-22.746-17.189a59.586,59.586,0,0,0-15.178-7.233,32.217,32.217,0,0,0-7.441-1.233c-13.157-.637-19.15,6.751-15.76,19.445,1.618,6.066,4.579,11.518,7.783,16.85a85.748,85.748,0,0,1,9.355,20.607,45.663,45.663,0,0,1-2.855,33.416,57.8,57.8,0,0,1-12.391,17.476c-4.481,4.188-7.907,9.547-7.83,15.69.071,5.488-.6,12.332-5.561,15.748-3.162,2.176-7.266,2.258-11.1,2.262l-26.055.028c-5.016,0-10.39-.095-14.5-2.965-3.9-2.723-5.925-7.534-6.368-12.271-.417-4.432.8-8.447,1.145-12.788.324-4.044-.763-8.372-1.451-12.381-1.413-8.229-3.23-16.387-5.338-24.464-5.186-19.891-17.372-33.876-35.627-42.861-6.1-3-12.412-5.5-18.771-7.885-7.457-2.8-14.866-5.746-21.542-10.154-12.656-8.357-18.942-20.237-18.646-35.38.264-13.664,11.966-21.3,24.734-16.34,6.3,2.445,11.226,6.857,15.924,11.523,3.748,3.724,7.746,7.058,12.661,9.144,2.7,1.147,5.466,2.448,8.218.278,2.992-2.357,3.122-5.671,2.5-9.033a19.406,19.406,0,0,0-6.4-10.831c-4.041-3.727-8.818-6.326-13.56-8.972-8.985-5.011-17.86-10.2-26.523-15.754-11.419-7.325-18.1-17.906-21.308-30.814a32.567,32.567,0,0,1,26.391-39.728c8.156-1.294,13.952,1.539,17.837,8.835,2.876,5.4,3.927,11.325,4.7,17.311.247,1.923.489,3.845.743,5.768,1.12,8.555,5.612,14.7,13.26,18.618,2.244,1.149,4.425,2.421,6.676,3.561,19.033,9.633,29.835,25.4,34.128,45.95.992,4.74,1.575,9.565,2.3,14.358.582,3.852,1.312,7.658,3.224,11.11,2.408,4.346,5.865,7.591,11.044,7.2,5.3-.4,7.962-4.388,9.455-9.1,1.861-5.876,1.606-11.911.746-17.89a72,72,0,0,0-10.035-27.714,146.691,146.691,0,0,0-20.9-26.432c-6.661-6.725-10.85-14.648-11.245-24.234a87.7,87.7,0,0,1,1.177-15.062c.92-6.955,1.392-13.933.177-20.878-2.229-12.729-9.212-22.439-19.513-29.934a104.311,104.311,0,0,0-21.448-11.62c-17.176-7.17-34.955-12.9-51.558-21.447-2.1-1.08-4.1-.778-6.2-.183a25.543,25.543,0,0,0-14.463,10.165c-2.773,3.98-5.354,8.119-8.4,11.878-8.769,10.813-20.045,17.114-34.144,17.247-15.911.15-29.726-15.88-27.627-31.651a19.8,19.8,0,0,1,3.285-8.628c3.755-5.5,8.72-7.418,15.147-5.634,2.231.62,4.348,1.647,6.523,2.474,2.354.9,4.665,1.969,7.084,2.633,6.747,1.848,10.605.2,14.109-5.892,3.117-5.424,4.185-11.671,6.8-17.309,1.059-2.284-1.025-3.55-2.154-4.992-6.178-7.9-10.828-16.546-13.093-26.376-2.4-10.4-2.517-20.764.664-31.039a25.966,25.966,0,0,1,4.756-9.263c4.28-5.069,10.361-5.567,15.415-1.23a24.7,24.7,0,0,1,6.93,10.621c1.782,4.917,3.213,9.962,4.809,14.947.887,2.769,1.707,5.565,2.714,8.29,5.124,13.853,14.985,22.8,28.79,27.628a127.508,127.508,0,0,0,16.83,4.584c22.929,4.646,41.607,16.539,57.365,33.438,3.707,3.973,7.179,8.165,10.914,12.112,3.411,3.6,5.354,3.193,6.91-1.444a20.832,20.832,0,0,0-.472-14.259,28.877,28.877,0,0,0-13.894-15.829c-5.655-3-11.467-5.7-17.156-8.63-11.527-5.944-21.646-13.688-29.7-23.928-5.916-7.521-9.763-15.909-9.2-25.723.569-9.882,4.767-17.955,13.133-23.462,11.044-7.268,23.112-3.572,28.373,8.48a64.937,64.937,0,0,1,3.345,11.73c.515,2.269.985,4.549,1.537,6.809,1.83,7.492,6.132,12.815,13.475,15.6,4.169,1.581,8.272,3.347,12.356,5.144,20.631,9.076,30.547,25.416,31.916,47.437.24,3.865.033,7.762.033,11.642Z" transform="translate(-1787.668 -984.651)" fill="#37cfa5"/>
      </g>
      <path id="Path_641" data-name="Path 641" d="M559.376-486.7c-3.632,6.2,16.146,33.782,21.316,39.183,9.252,9.664,24.7,22.181,37.625,24.938l-11.985,43.408c-3.945-4.487-7.36-20.892-21.978-33.872-5.1-4.535-31.986-20.742-36.07-18.557-4.266,9.065,29,36.494,35.9,41.387,7.923,5.614,15.787,9.928,20.291,19.285.1.206,4.5,34.292,4.53,35.726-6.522-4.45-10.695-7.814-19.177-9.659-4.5-.978-22.343-1.913-24.578,2.189,1.512,7.033,27.487,8.762,32.8,9.733,20.82,3.807,12.776,23.168,20.069,23.4,3.859-2.382-9.637-17.89,14.447-38.309,7.025-5.955,25.607-22.738,25.049-32.664-1.332-.01-24.939,12.843-27.724,14.771-14.813,10.252-10.4,16.032-16.86,26.641-2.859-3.524-4.173-37.317.659-42.462,6.369-6.783,22.641-11.378,31.35-15.839,9.411-4.822,50.4-39.91,45.872-48.052-1.364-.815-35.442,20.923-40.332,23.623-18.212,10.064-22.074,16.048-36.4,29.453,10.793-40.789,6.825-28.973,35.378-54.789,7.978-7.215,39.945-46.358,32.185-56.283-5.015-2.047-28.034,18.605-32.259,23.3-9.679,10.769-15.043,22.76-22.19,35.1-.43-.813,3.433-39.573,3.433-44.422,0-14.3-1.615-27.273-7.265-40.427-20.353-47.39-14.9,34.7-12.259,46.227,1.683,7.353,12.18,31.453,11.933,34.755-1.85,24.677-3.269,19.307-14.529,4.628-5.86-7.638-39.813-48.532-49.231-42.425Z" transform="translate(-430.573 317.881) rotate(43)" fill="#e4b297" fill-rule="evenodd"/>
      <path id="Path_642" data-name="Path 642" d="M-11.368-402.023c-33.624-17.534-37.954,16.149-6.959,16.13-3.138,4.43-10.359,7.642-15,15.4-3.3,5.519-8.366,17.835-.579,21.819,12.464,6.377,25.951-21.845,28.338-31.173C-2.53-376.4-.4-367.808,5.925-361.187c16.9,17.682,30.214-3.734,17.681-20.46-6.132-8.183-11.8-8.269-17.191-13.118,9.643-2.108,33.967-14.714,31.888-27.582-1.53-9.466-11.914-10.062-18.892-6.446-8.021,4.156-9.682,9.337-15.316,15.075,1.845-41.159-24.007-24.255-15.464,11.695Z" transform="translate(343.047 507.871)" fill="#e2b339" fill-rule="evenodd"/>
    </g>
  </g>
</svg>
