<svg xmlns="http://www.w3.org/2000/svg" width="447.87" height="108.914" viewBox="0 0 447.87 108.914">
  <g id="Group_6698" data-name="Group 6698" transform="translate(-800.199 -517.733)">
    <path id="Path_864" data-name="Path 864" d="M201.009,83.546a13.737,13.737,0,0,1,1.21-5.194,7.545,7.545,0,0,1,2.561-3.245c4.044-2.692,10.617-.9,12.551,3.6.212.444.832.055.644-.377a11.28,11.28,0,0,1-.73-7.005,11.719,11.719,0,0,1,2.762-5.693,7.94,7.94,0,0,1,6.429-2.539,12.881,12.881,0,0,1,7.441,3.308,21.926,21.926,0,0,1,2.643,2.662,8.553,8.553,0,0,1,1.375,2.223c.1.474.205.941.34,1.4.114.392.777.33.736-.1,0-.036-.013-.068-.014-.1h0l0-.014a5.709,5.709,0,0,0-.328-1.334,21.894,21.894,0,0,1,1.216-11.918c1.385-3.607,3.858-7.16,7.542-8.681a10.993,10.993,0,0,1,11.694,2.47c3.3,3.193,4.985,7.822,5.895,12.227a26.387,26.387,0,0,1,.592,7.752c-.286,3.2-1.181,6.32-1.331,9.54a.376.376,0,0,0,.562.327A15.249,15.249,0,0,1,268.491,81a5.49,5.49,0,0,1,4.063.354c2.08,1.036,4.109,3.708,3.649,6.146a.377.377,0,0,0,.685.289,25.7,25.7,0,0,1,3.713-4.881,8.777,8.777,0,0,1,4.611-2.675,6.323,6.323,0,0,1,5.23,1.848A9.543,9.543,0,0,1,292.6,92.672H203.619A15.64,15.64,0,0,1,201.009,83.546Z" transform="translate(599.201 467.946)" fill="#fff"/>
    <path id="Path_865" data-name="Path 865" d="M436.153,138.243c1.454-4.347.861-10.329-3.643-12.64a7.346,7.346,0,0,0-9.955,3.187c-.313.627-1.222.084-.933-.542,1.644-3.512,3.068-9.033-1.386-11.155-3.534-1.687-7.957.921-10.126,3.948-.2.319-.392.655-.613.966a.541.541,0,0,1-.933-.546,34.319,34.319,0,0,0,5.743-18.67c.1-5.731-1.358-11.877-5.856-15.773a16.511,16.511,0,0,0-17.285-2.272c-5.933,2.632-10.4,7.957-13.423,13.567-2.951,5.473-4.944,11.863-4.578,18.132.035.6-.952.739-1.06.142a32.392,32.392,0,0,0-2.787-8.976,13.089,13.089,0,0,0-5.413-5.837,11.837,11.837,0,0,0-7.875-.911c-4.7.97-9.947,4.237-11.258,9.105-.09.568-.186,1.132-.306,1.685-.131.592-1.116.467-1.063-.137,0-.052.016-.1.016-.144h0a.614.614,0,0,0,.019-.1,9.763,9.763,0,0,1,.223-1.244,27.324,27.324,0,0,0-2.4-16.389c-2.241-4.561-5.909-8.606-10.74-10.446-5.431-2.07-11.558-1.055-16.471,1.9a21.158,21.158,0,0,0-9.919,14.519c-1.311,7.626,2.5,14.445,5.045,21.361a.544.544,0,0,1-.791.613c-3.321-2.367-7.337-3.894-11.131-1.562a7.113,7.113,0,0,0-3.008,9.11c.3.622-.636,1.17-.935.546a10.792,10.792,0,0,0-5.9-5.83c-4.243-1.492-8.992.368-12.013,3.48a10.985,10.985,0,0,0-2.2,12.662l162.325-.183A13.929,13.929,0,0,0,436.153,138.243Z" transform="translate(640.367 486.661)" fill="#fff"/>
    <path id="Path_866" data-name="Path 866" d="M524.3,99.672a11.445,11.445,0,0,0,1.745-7.518c-.276-2.356-1.532-4.783-3.885-5.6-3.474-1.211-8.913.365-9.911,4.3a.375.375,0,0,1-.723-.2,12.72,12.72,0,0,0,.537-6.118,5.4,5.4,0,0,0-2.836-4.166,7.162,7.162,0,0,0-4.835-.15c-2.607.709-5.641,2.531-6.831,5.158q-.187.64-.415,1.259a.371.371,0,0,1-.714-.2,5.848,5.848,0,0,1,.4-1.241,19.019,19.019,0,0,0,.655-7.225,13.464,13.464,0,0,0-2.659-7.043,9.967,9.967,0,0,0-7.258-3.645,15.215,15.215,0,0,0-9.331,2.8,20.085,20.085,0,0,0-3.479,2.993,9.089,9.089,0,0,0-1.472,2.144,12.428,12.428,0,0,1-.505,2.22.375.375,0,0,1-.734-.1,5.129,5.129,0,0,1,.512-2.313,19,19,0,0,0-2.067-10.282c-1.642-3.351-4.311-6.73-8.032-7.781-3.8-1.074-7.629.914-10.163,3.706a25.492,25.492,0,0,0-5.462,11.514,30.271,30.271,0,0,0-.453,12.34.374.374,0,0,1-.72.2,26.757,26.757,0,0,0-3.972-8.706c-1.573-2.151-3.792-4.025-6.522-4.3a10.011,10.011,0,0,0-8.093,3.356c-3.973,4.358-3.378,11.237-.783,16.131a.374.374,0,0,1-.643.381,7.093,7.093,0,0,0-4.453-2.865,7.465,7.465,0,0,0-7.125,3.334,6.354,6.354,0,0,0-1.139,3.776,6.429,6.429,0,0,0,1.879,4.115.352.352,0,0,1,.1.265H523.939C524.061,100.031,524.189,99.857,524.3,99.672Z" transform="translate(721.943 471.93)" fill="#fff"/>
  </g>
</svg>
