<svg xmlns="http://www.w3.org/2000/svg" xmlns:xlink="http://www.w3.org/1999/xlink" width="121" height="79.999" viewBox="0 0 121 79.999">
  <defs>
    <filter id="Subtraction_1" x="0" y="0" width="121" height="79.999" filterUnits="userSpaceOnUse">
      <feOffset dy="3" input="SourceAlpha"/>
      <feGaussianBlur stdDeviation="3" result="blur"/>
      <feFlood flood-opacity="0.161"/>
      <feComposite operator="in" in2="blur"/>
      <feComposite in="SourceGraphic"/>
    </filter>
  </defs>
  <g transform="matrix(1, 0, 0, 1, 0, 0)" filter="url(#Subtraction_1)">
    <path id="Subtraction_1-2" data-name="Subtraction 1" d="M31.028,62A31,31,0,1,1,62.007,29.214h34l-9.668-9.659,2.582-2.579L103,31.038,88.925,45.1l-2.582-2.579,9.668-9.659H62A31.017,31.017,0,0,1,31.028,62Zm15.66-34.755a5.454,5.454,0,0,0-2.574.6,4.5,4.5,0,0,0-1.788,1.678,4.888,4.888,0,0,0,0,4.848A4.522,4.522,0,0,0,44.1,36.051a5.343,5.343,0,0,0,2.548.6,6.676,6.676,0,0,0,1.963-.3,5.51,5.51,0,0,0,1.716-.858V31.807H48.4v2.665a3.426,3.426,0,0,1-1.638.39,3.111,3.111,0,0,1-1.527-.371,2.673,2.673,0,0,1-1.047-1.033,3.229,3.229,0,0,1,0-3.028A2.62,2.62,0,0,1,45.245,29.4a3.234,3.234,0,0,1,1.547-.364,3.142,3.142,0,0,1,2.354,1.027L50.5,28.816a4.329,4.329,0,0,0-1.638-1.17A5.665,5.665,0,0,0,46.688,27.244ZM34.195,34.549H38.42l.806,1.95h2.21l-4.069-9.1h-2.08l-4.056,9.1h2.158l.805-1.95Zm-9.217-.585h1.938L28.67,36.5h2.262l-2.041-2.925A2.964,2.964,0,0,0,30.763,30.7a3.168,3.168,0,0,0-.481-1.755A3.136,3.136,0,0,0,28.911,27.8a5.075,5.075,0,0,0-2.1-.4H22.872v9.1h2.106V33.965ZM12.134,27.4v9.1h4.135a5.837,5.837,0,0,0,2.619-.565,4.259,4.259,0,0,0,1.768-1.593,4.855,4.855,0,0,0,0-4.783,4.259,4.259,0,0,0-1.768-1.593,5.837,5.837,0,0,0-2.619-.565Zm4.03,7.371H14.24V29.129h1.924a3.069,3.069,0,0,1,2.177.76,3.019,3.019,0,0,1,0,4.121A3.069,3.069,0,0,1,16.164,34.771Zm21.593-1.82H34.871l1.443-3.484,1.442,3.483Zm-11.063-.663H24.978V29.116h1.716a2.219,2.219,0,0,1,1.443.41,1.64,1.64,0,0,1,0,2.346A2.2,2.2,0,0,1,26.694,32.288Z" transform="translate(9 6)" fill="#37cfa5"/>
  </g>
</svg>
