<svg xmlns="http://www.w3.org/2000/svg" width="171.592" height="32.083" viewBox="0 0 171.592 32.083">
  <g id="Group_1510" data-name="Group 1510" transform="translate(-1068 -33)">
    <path id="Path_275" data-name="Path 275" d="M244.042,275.333V261.655a15.3,15.3,0,0,1,15.3,15.3v13.679A15.291,15.291,0,0,1,244.042,275.333Zm18,1.617v13.679a15.291,15.291,0,0,0,15.3-15.3V261.655A15.3,15.3,0,0,0,262.043,276.95Z" transform="translate(823.958 -225.99)" fill="#00c08b"/>
    <g id="Group_1509" data-name="Group 1509" transform="translate(1113.373 33)">
      <path id="Path_270" data-name="Path 270" d="M358.6,277.572a7.066,7.066,0,0,1,1.372,4.419,6.529,6.529,0,0,1-2.885,5.71q-2.887,2-8.414,2H334.063v-28.25h13.8q5.166,0,7.931,1.978a6.259,6.259,0,0,1,2.764,5.368,6.793,6.793,0,0,1-3.753,6.215A7.442,7.442,0,0,1,358.6,277.572Zm-18.039-11.2v6.66h6.5a6.568,6.568,0,0,0,3.672-.847,2.827,2.827,0,0,0,1.251-2.5,2.78,2.78,0,0,0-1.251-2.482,6.7,6.7,0,0,0-3.672-.827Zm11.522,17.555a2.9,2.9,0,0,0,1.312-2.622q0-3.513-5.206-3.512H340.56v6.983h7.627A7.242,7.242,0,0,0,352.082,283.927Z" transform="translate(-334.063 -257.938)" fill="#1f393f"/>
      <path id="Path_271" data-name="Path 271" d="M392.927,260.124a3.417,3.417,0,0,1,0-5,3.994,3.994,0,0,1,2.825-1.009,4.091,4.091,0,0,1,2.825.967,3.107,3.107,0,0,1,1.09,2.423,3.426,3.426,0,0,1-1.09,2.6,4.427,4.427,0,0,1-5.65.02Zm-.323,4.036h6.3v21.712h-6.3Z" transform="translate(-364.193 -254.112)" fill="#1f393f"/>
      <path id="Path_272" data-name="Path 272" d="M418.026,295.363a10.661,10.661,0,0,1-4.258-3.975,11.627,11.627,0,0,1,0-11.543,10.66,10.66,0,0,1,4.258-3.975,13.9,13.9,0,0,1,12.289,0,10.7,10.7,0,0,1,4.237,3.975,11.628,11.628,0,0,1,0,11.543,10.7,10.7,0,0,1-4.237,3.975,13.9,13.9,0,0,1-12.289,0ZM428.156,290a6.949,6.949,0,0,0,0-8.758,5.244,5.244,0,0,0-3.975-1.635,5.31,5.31,0,0,0-4,1.635,6.879,6.879,0,0,0,0,8.758,5.312,5.312,0,0,0,4,1.634A5.246,5.246,0,0,0,428.156,290Z" transform="translate(-374.83 -264.712)" fill="#1f393f"/>
      <path id="Path_273" data-name="Path 273" d="M501.918,276.839q2.4,2.4,2.4,7.2v12.43h-6.3V285.011a5.889,5.889,0,0,0-1.07-3.855,3.762,3.762,0,0,0-3.047-1.271,4.488,4.488,0,0,0-3.51,1.432,6.174,6.174,0,0,0-1.291,4.257v10.9h-6.3V285.011q0-5.126-4.117-5.126a4.441,4.441,0,0,0-3.471,1.432,6.179,6.179,0,0,0-1.291,4.257v10.9h-6.3V274.76h6.013v2.5a7.958,7.958,0,0,1,2.966-2.1,9.975,9.975,0,0,1,3.854-.727,9.341,9.341,0,0,1,4.157.908,7.366,7.366,0,0,1,2.986,2.644,8.916,8.916,0,0,1,3.37-2.624,10.642,10.642,0,0,1,4.459-.928A8.758,8.758,0,0,1,501.918,276.839Z" transform="translate(-403.722 -264.712)" fill="#1f393f"/>
      <path id="Path_274" data-name="Path 274" d="M572.786,287.391H556.361a5.108,5.108,0,0,0,2.1,3.189,6.949,6.949,0,0,0,4.116,1.17,8.326,8.326,0,0,0,3.007-.5,7.318,7.318,0,0,0,2.442-1.594l3.35,3.633q-3.068,3.51-8.96,3.51a14.173,14.173,0,0,1-6.5-1.432,10.511,10.511,0,0,1-4.358-3.975,10.954,10.954,0,0,1-1.533-5.772,11.089,11.089,0,0,1,1.513-5.75,10.6,10.6,0,0,1,4.157-4,12.22,12.22,0,0,1,5.912-1.432,12.1,12.1,0,0,1,5.771,1.373,10.016,10.016,0,0,1,4.056,3.934,11.735,11.735,0,0,1,1.474,5.953Q572.908,285.818,572.786,287.391Zm-14.73-6.981a5.154,5.154,0,0,0-1.776,3.309h10.694a5.209,5.209,0,0,0-1.775-3.29,5.314,5.314,0,0,0-3.551-1.231A5.419,5.419,0,0,0,558.056,280.41Z" transform="translate(-446.689 -264.712)" fill="#1f393f"/>
    </g>
  </g>
</svg>
