<svg xmlns="http://www.w3.org/2000/svg" width="417.229" height="653.864" viewBox="0 0 417.229 653.864">
  <g id="Group_1595" data-name="Group 1595" transform="translate(-1568.771 -161.864)">
    <g id="Group_1534" data-name="Group 1534" transform="translate(575.245 481.597)">
      <path id="Path_646" data-name="Path 646" d="M1834.5,106.338c-10.433-1.523-19.191,3.508-24.508-5.975-.28-.5-5.58,1.818-8.543,2.824,1.127,2.876,1.706,7.813,3.472,8.283,9.061,2.407,14.535,5.1,6.676,15.07-1.109,1.409.779,7.219,2.821,8.464,1.832,1.116,7.894-.557,8.433-2.2,2.16-6.576,6.6-6.222,11.751-5.8,1.931.16,4.327.017,5.818-1,2.7-1.847,6.75-4.384,6.84-6.762.125-3.288-2.135-7.6-4.768-9.808C1839.657,107.053,1835.213,106.587,1834.5,106.338Z" transform="translate(-500.307 -283.181)" fill="#d3d3cb"/>
      <path id="Path_647" data-name="Path 647" d="M1813.8-9.943a23.024,23.024,0,0,1-.011-4.075c1.444-6.365-.482-11.31-7.092-12.478-7.071-1.25-10.921,3.937-13.584,9.487-2.525,5.259-.995,9.331,4.435,12.339,4.692,2.6,8.745,6.323,13.284,9.233,7.07,4.531,13.771,4.368,15.4-.529,2.23-6.683-1.81-10.12-7.671-12.076C1817.184-8.5,1815.853-9.118,1813.8-9.943Z" transform="translate(-493.89 -197.573)" fill="#d3d3cb"/>
      <path id="Path_648" data-name="Path 648" d="M1669.653,7.553c-13,17.166-13,17.166-8.42,30.092,10.6,2.117,15.094-8.038,22.624-12,.883-.464.188-6.841-1.6-8.834C1679.057,13.254,1674.465,10.949,1669.653,7.553Z" transform="translate(-403.902 -220.655)" fill="#d3d3cb"/>
      <path id="Path_649" data-name="Path 649" d="M1468.767,376.621c1.048,1.79,1.347,2.922,2.08,3.449,4.549,3.27,8.533,11.469,14.642,6.558,4.327-3.479,6.5-10.973,7.4-17.007.884-5.972-3.795-10.188-9.85-11.231-5.161-.889-8.341,1.819-9.812,6.954C1472.166,369.028,1470.419,372.515,1468.767,376.621Z" transform="translate(-276.014 -457.075)" fill="#d3d3cb"/>
      <path id="Path_650" data-name="Path 650" d="M1880.981,254.049c9.916,3.959,13.543,3.368,15.851-2.582,2.733-7.045-1.895-15.415-9.553-17.277-7.735-1.881-12.229,2.922-9.818,10.711,1.018,3.287,2.592,6.4,3.914,9.6Z" transform="translate(-551.115 -373.179)" fill="#d3d3cb"/>
      <path id="Path_651" data-name="Path 651" d="M1415.413,138.972c-3,1.311-5.463,1.59-6.307,2.907-2.632,4.107-5.492,4.176-10.082,3.4-2.822-.474-6.986,2.554-9.234,5.147-1.034,1.192.574,7.081,1.874,7.42,3.34.868,9.287,1.136,10.427-.7,3.708-5.962,8.384-.965,11.9-2.428,2.606-1.085,5.617-4.442,5.865-7.034C1420.105,145.076,1417.172,142.156,1415.413,138.972Z" transform="translate(-222.545 -309.258)" fill="#d3d3cb"/>
      <path id="Path_652" data-name="Path 652" d="M1557.8,460.122c-4.84,2.882-9.663,4.221-11.279,7.264-1.047,1.971,2.571,6.442,4.164,9.761.184.384.778.589,1.206.837,4.761,2.747,9.783,6.08,14.944,1.759,1.809-1.514,3.341-6.187,2.36-7.666C1566.422,467.9,1562.284,464.639,1557.8,460.122Z" transform="translate(-328.307 -525.776)" fill="#d3d3cb"/>
      <path id="Path_653" data-name="Path 653" d="M1734.435-222.74c-8.452-1.157-13.816,2.728-14.651,8.5-.933,6.449,3.169,9.081,8.508,10.155,5.614,1.13,12.628-3.412,11.828-8.437C1739.461-216.657,1735.869-220.319,1734.435-222.74Z" transform="translate(-445.16 -65.254)" fill="#d3d3cb"/>
      <path id="Path_654" data-name="Path 654" d="M1946.713-152.3c2.911.067,6.033.842,8.69.052,5.345-1.588,8.227-5.65,6.787-11.3-1.22-4.789-4.816-7.67-9.953-6.789-5.417.929-8.991,4.478-8.719,10.15.129,2.683,2.2,5.272,3.392,7.9Z" transform="translate(-596.081 -100.615)" fill="#d3d3cb"/>
      <path id="Path_655" data-name="Path 655" d="M1784.909,426.557c-7.409-.011-11.92,4.632-14.766,9.612-1.26,2.2,1.162,7.634,3.411,10.365,1.777,2.158,5.895,3.287,8.873,3.118,1.2-.068,2.837-4.754,3.042-7.433C1785.82,437.627,1785.2,432.961,1784.909,426.557Z" transform="translate(-478.969 -503.147)" fill="#d3d3cb"/>
      <path id="Path_656" data-name="Path 656" d="M1399.557-175.126c-5.489,1.477-10.75,2.439-15.579,4.44-1.667.691-3.3,4.1-3.051,6.025.246,1.882,2.805,4.753,4.535,4.893,4.19.339,9.14.517,12.591-1.394C1403.162-163.994,1402.363-169.15,1399.557-175.126Z" transform="translate(-216.775 -97.493)" fill="#d3d3cb"/>
      <path id="Path_657" data-name="Path 657" d="M1358.479,78.825c2.425-1.848,6.032-3.214,7.023-5.647,1.881-4.616-1.321-7.673-5.788-8.318a59.474,59.474,0,0,0-13.891-.385c-1.921.179-4.974,2.279-5.132,3.76-.2,1.853,1.667,5.22,3.321,5.73,4.352,1.341,9.072,1.489,13.646,2.113Z" transform="translate(-189.656 -258.871)" fill="#d3d3cb"/>
      <path id="Path_658" data-name="Path 658" d="M1063.824,241.234c-1.114,1.637-3.865,3.979-4.328,6.709-1.04,6.123,4.592,13.738,9.488,12.824,2.529-.472,5.849-3.86,6.382-6.433C1076.613,248.309,1071,241.5,1063.824,241.234Z" transform="translate(0 -378.202)" fill="#d3d3cb"/>
      <path id="Path_659" data-name="Path 659" d="M1584.344,304.652c8.358.647,12.54-2.18,12.473-7.989-.036-3.133-2.624-7.548-5.344-9.031-4.043-2.206-11.941,3.891-11.437,8.8C1580.369,299.675,1583.229,302.655,1584.344,304.652Z" transform="translate(-351.016 -409.17)" fill="#d3d3cb"/>
      <path id="Path_660" data-name="Path 660" d="M1297.039,348.479c-.19,6.2,6.319,14.576,10.889,14.018,2.31-.282,5.64-3.945,5.962-6.413.739-5.66-6-12.639-11.118-11.864C1300.435,344.574,1298.467,347.356,1297.039,348.479Z" transform="translate(-160.233 -447.596)" fill="#d3d3cb"/>
      <path id="Path_661" data-name="Path 661" d="M1655.488-120.169c4.742-4.667,8.86-6.938,9.961-10.221,1.649-4.917-1.74-8.558-6.9-9.443-5.122-.88-9.692,1.357-9.714,6.51C1648.823-129.8,1652.243-126.255,1655.488-120.169Z" transform="translate(-397.418 -121.162)" fill="#d3d3cb"/>
      <path id="Path_662" data-name="Path 662" d="M1772.253-93.754c1.447-1.847,4.1-4.717,3.85-4.992-4.26-4.753-2.929-10.523-3.8-15.937-.242-1.515-5.011-3.738-6.952-3.151-1.984.6-4.693,4.715-4.2,6.481,1.414,5.038,4.179,9.726,6.688,14.4C1768.457-95.811,1770.129-95.243,1772.253-93.754Z" transform="translate(-473.104 -136.054)" fill="#d3d3cb"/>
      <path id="Path_663" data-name="Path 663" d="M1296.619,235.4c-8.5,2.486-14.59,4.048-20.452,6.218-.864.32-1.562,4.431-.776,5.207,1.931,1.907,5.2,4.467,7.164,3.937,4.981-1.343,9.621-4.1,14.2-6.637.887-.491,1.328-2.609,1.206-3.9A22.4,22.4,0,0,0,1296.619,235.4Z" transform="translate(-145.409 -374.272)" fill="#d3d3cb"/>
      <path id="Path_664" data-name="Path 664" d="M1483.545,231.1c-4.593,4.967-8.549,7.3-9.045,10.224-.8,4.743,2.217,9.244,7.676,8.77,2.706-.235,7.292-3.628,7.243-5.492C1489.323,241.006,1486.541,237.48,1483.545,231.1Z" transform="translate(-279.793 -371.369)" fill="#d3d3cb"/>
      <path id="Path_665" data-name="Path 665" d="M1618.121,356.049c-7.973-1.05-11.456,2.26-11.321,6.939.082,2.833,3.5,6.6,6.375,8.08,4.4,2.266,8.164-.824,8.243-5.225C1621.483,362.241,1619.051,358.593,1618.121,356.049Z" transform="translate(-369.073 -455.479)" fill="#d3d3cb"/>
      <path id="Path_666" data-name="Path 666" d="M1369.655-35.208c4.663,5.284,7.5,9,11.022,11.868.444.362,6.791-4.355,6.439-5.578a21.761,21.761,0,0,0-6.652-10.368C1379.317-40.231,1375.008-37.34,1369.655-35.208Z" transform="translate(-209.193 -188.952)" fill="#d3d3cb"/>
      <path id="Path_667" data-name="Path 667" d="M1999.152,71.243c5.94,3.782,9.182,7.275,12.733,7.625,2.558.253,5.53-3.681,8.317-5.747-3.234-2.468-6.169-5.906-9.818-7.036C2008.236,65.42,2004.953,68.418,1999.152,71.243Z" transform="translate(-633.599 -260.054)" fill="#d3d3cb"/>
      <path id="Path_668" data-name="Path 668" d="M1677.239,230.317c.827-3.309,2.762-6.841,2.153-9.86-.549-2.719-3.581-6.349-6.077-6.863-2.429-.5-7.111,1.844-7.965,4.042-.864,2.224.981,6.616,3.049,8.564,2.257,2.127,6.131,2.539,9.3,3.7Z" transform="translate(-408.403 -359.522)" fill="#d3d3cb"/>
      <path id="Path_669" data-name="Path 669" d="M1669.334,177.26c4.428-4.851,8.078-7.119,8.583-9.948.408-2.29-3.06-7.51-4.647-7.445-3.123.128-7.756,2.409-8.715,4.95C1663.665,167.177,1666.744,171.036,1669.334,177.26Z" transform="translate(-407.909 -323.344)" fill="#d3d3cb"/>
      <path id="Path_670" data-name="Path 670" d="M1925.7,78.858c4.642,4.594,7.183,8.064,10.6,9.885.971.517,6.741-4.288,6.4-5.741a14.675,14.675,0,0,0-6.383-8.734C1934.728,73.378,1930.917,76.46,1925.7,78.858Z" transform="translate(-584.076 -265.528)" fill="#d3d3cb"/>
      <path id="Path_671" data-name="Path 671" d="M1411.609,463.142c.5-3.694,2.165-7.515.979-8.9-2.6-3.038-6.527-5.076-10.209-6.934-.651-.328-4.153,2.785-3.937,3.3a34.814,34.814,0,0,0,5.562,9.659C1405.375,461.815,1408.311,461.978,1411.609,463.142Z" transform="translate(-228.595 -517.121)" fill="#d3d3cb"/>
      <path id="Path_672" data-name="Path 672" d="M1540.259-134.441l-8.692,9.358c2.833,2.107,5.474,5.424,8.564,5.915,2.226.354,5.051-3.056,7.609-4.787Z" transform="translate(-318.354 -124.923)" fill="#d3d3cb"/>
      <path id="Path_673" data-name="Path 673" d="M1579.288-5.785c-4.71,4.973-8.417,7.215-9.042,10.12-.437,2.032,3,6.568,5.326,7.06,2.386.505,7.461-2.145,7.877-4.14C1584.06,4.321,1581.582.741,1579.288-5.785Z" transform="translate(-344.405 -211.663)" fill="#d3d3cb"/>
      <path id="Path_674" data-name="Path 674" d="M1407.87,323.113c-3.365,4.141-6.046,6.008-6.519,8.327-.941,4.608,4.659,9.874,9.574,9.056,1.909-.318,5.157-3.674,4.868-4.307C1413.953,332.167,1411.295,328.52,1407.87,323.113Z" transform="translate(-230.492 -433.405)" fill="#d3d3cb"/>
      <path id="Path_675" data-name="Path 675" d="M1942.564-114.6c-1.428,1.6-3.467,2.99-4.14,4.866-.974,2.716-.959,5.786-1.367,8.705l10.82.938c-.116-3,.371-6.21-.542-8.949-.714-2.142-3.165-3.706-4.907-5.549C1942.367-114.616,1942.565-114.6,1942.564-114.6Z" transform="translate(-591.735 -138.295)" fill="#d3d3cb"/>
      <path id="Path_676" data-name="Path 676" d="M1431.091-246.438c3.422-2.862,6.758-4.262,7.212-6.3,1.147-5.154-2.036-8.679-7.114-8.922-2.218-.107-4.563,2.422-6.852,3.755Z" transform="translate(-246.06 -39.147)" fill="#d3d3cb"/>
      <path id="Path_677" data-name="Path 677" d="M1325.489-88.928c3.808-7.952,3.341-12.232-2.311-13.9-2.142-.632-6.059.659-7.449,2.425C1312.916-96.832,1315.408-94.1,1325.489-88.928Z" transform="translate(-172.108 -146.126)" fill="#d3d3cb"/>
      <path id="Path_678" data-name="Path 678" d="M1974.76,347.769c-4.041-3.769-5.942-6.8-8.576-7.709-4.04-1.4-8.632.044-8.521,5,.053,2.356,3.692,5.876,6.311,6.564C1966.371,352.251,1969.584,349.776,1974.76,347.769Z" transform="translate(-605.626 -444.489)" fill="#d3d3cb"/>
      <path id="Path_679" data-name="Path 679" d="M1661.51,497.33c3.445,7.45,7.449,10.931,13.573,8.241,1.639-.72,3.19-5.765,2.271-7.485C1672.961,489.862,1667.462,497.089,1661.51,497.33Z" transform="translate(-405.961 -548.728)" fill="#d3d3cb"/>
      <path id="Path_680" data-name="Path 680" d="M1381.1,491.2c1.645,3.69,2.733,7.838,5.206,10.848,1,1.22,5.351.61,7.522-.477.944-.472,1.194-5.371.1-6.3-3.074-2.612-7.014-4.206-10.612-6.2Z" transform="translate(-216.909 -545.289)" fill="#d3d3cb"/>
      <path id="Path_681" data-name="Path 681" d="M1343.016,282.7c-3.674,3.719-6.854,5.435-7.073,7.468-.471,4.387.372,9.557,6.178,9.892,2.086.121,6.357-3.18,6.167-4.364C1347.672,291.855,1345.449,288.276,1343.016,282.7Z" transform="translate(-186.39 -406.155)" fill="#d3d3cb"/>
      <path id="Path_682" data-name="Path 682" d="M1773.89-318.687l-8.547,6.068c1.714,2.009,3.373,5.6,5.153,5.66,2.75.095,5.582-2.224,8.38-3.519Z" transform="translate(-475.965 -0.705)" fill="#d3d3cb"/>
      <path id="Path_683" data-name="Path 683" d="M1742.327,137.065c4.521,3.2,6.865,6.01,9.536,6.367,1.917.255,4.271-2.767,6.431-4.327-1.9-2.481-3.415-6.38-5.808-7.023C1750.333,131.5,1747.219,134.492,1742.327,137.065Z" transform="translate(-460.448 -304.563)" fill="#d3d3cb"/>
      <path id="Path_684" data-name="Path 684" d="M1861.466,289.712a39.329,39.329,0,0,1-5.5-2.158c-3.544-2.018-7.291-2.62-8.611,1.755-.554,1.838,1.926,5.568,4.014,7,3.224,2.211,6.777,1.816,8.215-2.891.431-1.41.967-2.788,1.469-4.167C1861.072,289.263,1861.466,289.711,1861.466,289.712Z" transform="translate(-531.207 -408.393)" fill="#d3d3cb"/>
      <path id="Path_685" data-name="Path 685" d="M1505.17,554.6c-.309,1.418-.874,2.455-.662,3.3,1.321,5.235,4.112,9.22,10.132,8.025,1.26-.25,3.029-4.164,2.555-5.81C1515.4,553.877,1511.255,551.632,1505.17,554.6Z" transform="translate(-300.08 -588.6)" fill="#d3d3cb"/>
      <path id="Path_686" data-name="Path 686" d="M1677.054,403.086c-3.044,3.884-5.926,6.24-5.511,7.277,1.3,3.245,3.841,5.991,5.9,8.932,1.734-1.549,5.12-3.428,4.889-4.583C1681.654,411.323,1679.537,408.222,1677.054,403.086Z" transform="translate(-412.698 -487.323)" fill="#d3d3cb"/>
      <path id="Path_687" data-name="Path 687" d="M1515.56-83.539c.515,3.644,1.029,7.289,1.488,10.535,1.884.519,3.278,1.247,3.581.931,2.126-2.22,5.989-5.147,5.548-6.91-.689-2.758-4.339-4.776-6.735-7.107Z" transform="translate(-307.562 -157.522)" fill="#d3d3cb"/>
      <path id="Path_688" data-name="Path 688" d="M1593.539,124.635c2.739,3.092,4.363,6.477,6.216,6.608,2.142.151,4.487-2.564,6.744-4.035-1.488-2.27-2.569-5.773-4.587-6.439C1600.13,120.18,1597.3,122.757,1593.539,124.635Z" transform="translate(-360.135 -296.927)" fill="#d3d3cb"/>
      <path id="Path_689" data-name="Path 689" d="M1523.378,38.54c2.993,2.675,4.925,5.757,6.964,5.83,1.909.068,3.932-3.053,5.9-4.771-2.021-1.829-3.793-4.414-6.159-5.192C1528.765,33.973,1526.457,36.537,1523.378,38.54Z" transform="translate(-312.833 -238.727)" fill="#d3d3cb"/>
      <path id="Path_690" data-name="Path 690" d="M1742.953,350.727l-7.629,11.543c3.891.258,7.533,1.645,9.317.39C1748.915,359.652,1749.708,355.475,1742.953,350.727Z" transform="translate(-455.727 -452.022)" fill="#d3d3cb"/>
      <path id="Path_691" data-name="Path 691" d="M1583.558-307.6l7.317-6.135c-2.462-2.07-4.669-4.758-7.5-5.928-1.252-.518-3.775,2.038-5.721,3.2Z" transform="translate(-349.424)" fill="#d3d3cb"/>
      <path id="Path_692" data-name="Path 692" d="M1559.075,184.255c3.462,2.883,5.645,6.069,7.534,5.9,2.045-.179,4.442-3.232,5.385-5.559.354-.873-2.907-4.538-4.587-4.586C1565.173,179.951,1562.873,182.178,1559.075,184.255Z" transform="translate(-336.9 -336.928)" fill="#d3d3cb"/>
      <path id="Path_693" data-name="Path 693" d="M1702.687,260.281c-.116,1.469-.889,3.695-.228,4.269a22.758,22.758,0,0,0,7.613,4.561c.586.191,3.872-4.139,3.377-5.181a11.977,11.977,0,0,0-5.912-5.24c-1.253-.53-3.477,1.229-5.286,1.983C1702.226,260.7,1702.687,260.281,1702.687,260.281Z" transform="translate(-433.39 -389.906)" fill="#d3d3cb"/>
      <path id="Path_694" data-name="Path 694" d="M1481.782,70.538c2.83,3.276,4.386,6.656,6.425,6.979,1.924.3,5.94-2.415,6.154-4.157.25-2.05-2.175-5.625-4.239-6.392C1488.406,66.331,1485.535,68.8,1481.782,70.538Z" transform="translate(-284.789 -260.644)" fill="#d3d3cb"/>
      <path id="Path_695" data-name="Path 695" d="M1950.414,268.279c3.976,7.653,9.028,5.377,16.812-.479l-15.645-3.671Z" transform="translate(-600.74 -393.638)" fill="#d3d3cb"/>
      <path id="Path_696" data-name="Path 696" d="M1506.19-202.363c-2.939,3.3-6.231,5.442-6.034,7.187.234,2.076,3.2,4.533,5.514,5.375,1.052.383,4.77-2.7,4.788-4.241C1510.483-196.3,1508.275-198.588,1506.19-202.363Z" transform="translate(-297.171 -79.13)" fill="#d3d3cb"/>
      <path id="Path_697" data-name="Path 697" d="M1255.182,131.982c3.836,2.981,6.1,5.455,8.9,6.532.976.375,3.278-2.7,4.974-4.2-2.188-2.216-4.1-4.936-6.711-6.384C1261.388,127.4,1258.763,129.869,1255.182,131.982Z" transform="translate(-132.016 -301.764)" fill="#d3d3cb"/>
      <path id="Path_698" data-name="Path 698" d="M1728.722,299.011c3.021,3.323,4.678,6.665,6.536,6.78,2.009.125,4.781-2.421,6.029-4.512.484-.812-2.07-4.862-3.635-5.128C1735.448,295.775,1732.878,297.544,1728.722,299.011Z" transform="translate(-451.276 -415.193)" fill="#d3d3cb"/>
      <path id="Path_699" data-name="Path 699" d="M1677.664-67.426c-2.615,2.447-5.665,4.13-5.5,5.4.311,2.4,2.465,4.56,3.854,6.82,2.175-1.478,5.777-2.68,6.132-4.512C1682.517-61.616,1679.735-64.123,1677.664-67.426Z" transform="translate(-413.139 -170.104)" fill="#d3d3cb"/>
      <path id="Path_700" data-name="Path 700" d="M1664.676-249.66c-2.259,2.241-4.743,4-4.493,4.58a20.152,20.152,0,0,0,4.545,6.152c.206.2,4.078-2.282,3.915-2.96C1668.078-244.242,1666.484-246.35,1664.676-249.66Z" transform="translate(-405.055 -47.243)" fill="#d3d3cb"/>
      <path id="Path_701" data-name="Path 701" d="M1168.348,167.33c3.278,1.036,5.217,2.335,6.563,1.88,1.307-.442,2.005-2.683,2.971-4.133-1.6-.818-3.275-2.379-4.782-2.232C1171.786,162.972,1170.661,165.027,1168.348,167.33Z" transform="translate(-73.472 -325.345)" fill="#d3d3cb"/>
      <path id="Path_702" data-name="Path 702" d="M1883.44-235.84c-2.338-.319-4.673-.721-7.021-.833-.247-.012-.883,2.452-.821,2.476,2.325.931,4.71,1.712,7.088,2.512Q1883.063-233.762,1883.44-235.84Z" transform="translate(-550.297 -55.998)" fill="#d3d3cb"/>
    </g>
    <path id="Path_595" data-name="Path 595" d="M1283.625,1418.949c-23.93-2.275-15.128-14.365-17.708-30.213s-16.089-34.74-3.739-27.1,51.8,22.532,69.19,23.986,35.9-4.858,40.5-11.776-12.284-10.677-30.785-4.412-85.757-15.433-91.122-21.515.407-40.23,4.227-49.154,14.48,17.276,31.939,26.662,69.782,13.1,80.585,11.227-.577-11.125-17.586-14.3-64.094-5.721-72.7-8.248-12.734-16.887-10.077-26.07-6-25.163-4.166-24.143,26.81,10.247,46.208,21.9,28.841,13.143,30.592,2.536-29.487-15.73-52.313-25.7-19.589-19.024-14-33.052c.113-.285.215-.567.318-.849q.354-.982.634-1.944c.116-.4.222-.788.319-1.178q.035-.141.068-.28.1-.418.187-.83c.029-.136.057-.272.083-.407q.093-.473.171-.94c.009-.053.018-.106.027-.16q.1-.6.169-1.194a46.234,46.234,0,0,0-9.924-16.994s5.127.458,10.6.724c.01-.02.021-.037.032-.056s.03-.055.046-.081a2.519,2.519,0,0,1,.151-.227c.019-.026.04-.051.06-.076a2.809,2.809,0,0,1,.187-.211,3.527,3.527,0,0,1,2.572-.906c7.536-.154,46.042-31.288,56.911-36.2s17.075.137,19.2,9.775,16.419,19.54,24.047,29.181-4.755,73.473,15.7,72.151-2.821-88.832-10.9-104.682-3.36-28.8,8.352-18.3,13.194,1.106,32.453,3.562,17.789,25.955,19.924,56.365-29.938,91.69-17.656,98.7,38.585-70.826,40.466-82.014-9.285-62.548-6.773-69.271,15.275,6.407,25.964,12.454,14.983,7.613,18.213,15.052.3,39.778-.216,47.6-32.048,69.838-40.875,82.534,21.377-19.676,34.848-39.891c9.654-14.491,9.655-27.992,10.031-38.954a56.126,56.126,0,0,1,1.246-11.684c3.106-12.138,3.828-43.744,5.768-41.48a136.693,136.693,0,0,0,24.954,25.107c16.1,12.749,8.787,20.9-1.6,52.182s-41.527,64.672-47.44,71.908,13.415-8.009,34.056-26.627,21.879-37.892,24.784-53.128,10.765-32.425,9.857-28.351,11.5,25.165,17.217,39.878-11.5,46.923-18.143,57.051-51.2,35.638-54.13,46.043,43.354-13.621,49.593-25.672,29.093-25.9,32.194-17.877,5.35,39.068-28.5,84.069-75.745,13.677-82.793,9.664c-.11-.062-.223-.128-.338-.2l-.255-.152-.037-.022c-4.272-2.594-11.994-8.761-18.142-12.757l-.274-.177-.188-.12c-.563-.36-1.111-.7-1.641-1.015l-.049-.029-.338-.2-.274-.158-.135-.077a14.763,14.763,0,0,0-4.35-1.835c-.106-.017-.193-.027-.278-.034a2.744,2.744,0,0,0-.29-.011,1.215,1.215,0,0,0-1.267.805,9.756,9.756,0,0,0-.323,1.125c-.037.157-.069.315-.1.473-.017.089-.032.177-.045.265l-.01.066a11.953,11.953,0,0,0,.051,3.869c1.195,7.026,7.941,14.166,13.323,21.107q.572.739,1.118,1.475.254.341.5.681c.064.088.127.176.191.263q.342.475.67.948l.068.1q.369.534.716,1.066l.018.027q.362.556.7,1.11a26.559,26.559,0,0,1,1.737,3.339c4.863,11.469,1.97,40.148-14.335,53.011s-49.436-4.387-41.651-5,13.977-13.382,24.28-25.138-2.851-18.962-4.268-16.223-30.624,50.606-38.386,52.543-50.7-24.731-38.163-24.994,50.414-32.759,52.681-40.2-6.273-2.008-22.129,8.512-48.065,29.616-61.323,26.053-34.648-41.928-26.436-37.655,29.237-5.1,51.683-9.872,15.271-13.7,10.032-14.872S1307.555,1421.224,1283.625,1418.949Z" transform="translate(397.941 -734.188)" fill="#b4ebd8"/>
    <path id="Path_645" data-name="Path 645" d="M200.834-228.19c-49.973,6.857-83.544,42.012-97.59,91.429-6.013,21.15-11.183,54.568-22.173,72.586C63.435-35.263,35.9-55.546,11.878-57.444c-98.851-7.822-86.645,204.231,76.75,166.935,84.594-19.305,100.839,6.453,164.817,2.248,49.12-3.227,86.968-52.131,88.139-101.781,1.355-57.467-36.133-93.035-47.437-143.708-12.57-56.345-19.386-104.577-93.313-94.44Z" transform="translate(1620.229 701.237)" fill="none" stroke="#fb7c6a" stroke-width="1" fill-rule="evenodd"/>
    <g id="Group_1525" data-name="Group 1525" transform="translate(1697.027 1453.605)">
      <g id="Group_1524" data-name="Group 1524" transform="translate(8 -1191)">
        <path id="Path_596" data-name="Path 596" d="M5425.465,1347.753c-.17.436-.479,1.184-.9,2.195a8.366,8.366,0,0,0,.4-.862C5425.194,1348.489,5425.36,1348.041,5425.465,1347.753Z" transform="translate(-5174.209 -1207.753)" fill="#3f7b92"/>
        <path id="Path_597" data-name="Path 597" d="M5430.828,1471.03a18.056,18.056,0,0,0,1.538-3.373C5432.657,1466.633,5432.082,1468,5430.828,1471.03Z" transform="translate(-5179.643 -1311.441)" fill="#3f7b92"/>
        <path id="Path_598" data-name="Path 598" d="M3770.091,784.225l1.5-2.1,1.017-1.442,1.366-1.935s-1.147-12.327-3.529-28.489-17.826-42.225-19.472-47.338,3.1-12.284,6.653-27.535,16.642-49.09,27.042-69.367,9.97-61.049,6.871-48.766-16.1,37.63-29.1,62.976-13.524,76.3-13.524,76.3l-8.773-14.1s5.787-25.845,10.706-50,32.979-68.457,36.489-79.462c3.4-10.658,2.6-38.5,2.537-40.232a81.456,81.456,0,0,1-7.93,27.861c-6.934,13.518-32.48,61.242-39.912,81.975s-6.048,51.322-6.048,51.322-9.6-16.661-8.729-18.35,2.688-13.562,6.741-36.027,34.712-71.836,45.156-96.359c10.227-24.016,12.271-44.043,12.348-44.858-.426,1-8.961,21.506-19.063,37.145-10.357,16.031-38.048,65.856-45.025,83.621s-3.9,49.221-3.9,49.221-11.741-14.559-10.831-20.5.131-12.739,4.552-29.68,26.956-60.875,43.336-84.487c12.776-18.418,25.686-49.744,30.119-60.426-3.843,6.951-13.979,20.95-26.477,36.682-15.058,18.955-42.294,65.813-47.083,77.229s-10.295,51.279-10.295,51.279a185.221,185.221,0,0,1-7.039-17.484c-2.469-7.669,13.088-33.839,17.876-45.255s44.028-69.192,56.118-88.6a241.834,241.834,0,0,0,16.067-31.243c-6.165,11.831-66.353,91.6-80.59,111.266-14.646,20.233-13.219,46.577-13.219,46.577a197.976,197.976,0,0,1-5.306-20.863c-2.014-10.637,29.056-58.73,35.535-69.28s29.555-65.944,38.958-71.792,41.814-19.1,39.257-18.281-21.686,2.75-35.79,11.522-46,54.309-65.065,91.483-15.863,55.893-15.863,55.893l-6.628-16.206s36.9-78.183,44.7-93.391,44.352-59.422,56.267-61.847,29.53-22.2,23.1-15.9-16.573,1.1-34.967,14.079-45.131,52.619-65.844,84.681-26.588,66.4-26.588,66.4a50.8,50.8,0,0,1-4.57-9.814c-1.646-5.113,11.311-26.213,13.5-32.56s43.292-80.241,47.214-89.968,15.495-61.417,20.7-71.555,15.1-23.2,2.644-9.315-23.121,59.64-26.176,67.677-30.291,54.895-37.636,67.135-24.355,55.805-24.355,55.805l-3.66-15.75s20.3-33.34,24.636-41.789,21.15-74.524,25.571-91.465c3.846-14.739,6.952-51.67,7.694-61.022-.313,3.148-1.043,9.731-2.6,19.882-2.276,14.84-22.428,74.935-29.362,88.453s-28,79.549-28,79.549l-4.115-12.782s22.167-49.458,26.132-63.431,12.808-47.855,13.761-58.038,12.571-66.118,13.026-69.086a.461.461,0,0,0,.009-.1c-.626,1.824-9.173,38.9-13.683,49.647-4.789,11.417-16.231,50.368-27.542,76.581s-13.306,55.07-13.306,55.07-4.483-18.307-4.028-21.275,21.019-61.785,23.707-75.347c2.642-13.307,13.657-85.047,14.05-87.685-.98,3.222-32.1,106.363-33.9,118.057s-7.429,36.912-7.6,37.7c-.037-.595-.631-15.5,2.81-26.283,3.51-11.005,6.136-59.815,4.122-70.452s-3.093-70.951-7.837-63.78-5.138,45.386-6.136,59.815.3,53.511.3,53.511-12.021-28.576-18.649-44.782-26.6-56.329-28.7-58.474,7.688,37.025,22.222,69.024,24.542,49.938,26.6,56.329,2.793,17.44,2.793,17.44-7.495-14.516-8.274-21.318-29.112-59.753-47.157-80.747-13.624-37.935-15.4-30.31c-.493,2.106,1.023,7.429,3.774,14.571,2.142,5.6,5.042,12.329,8.323,19.5a.259.259,0,0,0,.045.1c7.688,16.739,17.408,35.843,24.377,48.595,8.42,15.417,19.687,33.106,27.149,44.5a.17.17,0,0,0,.038.073c4.708,7.174,7.9,11.845,7.9,11.845a96.94,96.94,0,0,1,2.72,10.551c.518,2.88.633,5.3-.338,5.611-2.556.823-10.831-20.5-13.755-25.2s-28.832-45.736-33.813-56.828-40.616-56.049-44.819-60.339c-3.232-3.29,4.2,5.8,11.4,17.363,2.164,3.479,4.317,7.187,6.144,10.846,2.289,4.567,4.615,9.25,7.179,14.236,6.278,12.269,14.01,26.427,26.179,45.56,15.709,24.695,39.911,57.32,43.819,62.579.352.479.545.728.545.728l.234,1.208.009.025,4.2,21.319s-45.1-74.356-53.049-85.9-29.655-48.292-46.465-65.452-.455,2.968,6.26,10.681,7.04,17.484,31.257,57.651c19.015,31.544,39.413,56.563,51.155,71.432,2.8,3.57,5.114,6.55,6.788,8.9.247.33.465.654.674.954,7.95,11.548,7.906,15.794,8.729,18.35s-34.855-38.154-45.317-53.125-37.281-50.069-43.584-56.5-40.292-46.278-33.62-34.319,28.919,37.243,31.843,41.945,28.875,41.49,40.616,56.049c11.275,13.99,47.415,48.6,52.1,53.211q.3.283.429.412a11.209,11.209,0,0,1,1.722,3.508,113.913,113.913,0,0,1,3.217,11.83s-44.127-45.044-50.842-52.757-39.058-42.443-46.228-47.188-34.855-38.154-31.107-30.9,42.35,52.669,58.748,68.55c14.107,13.671,57.824,54.374,69.745,65.462,1.931,1.791,3.02,2.808,3.02,2.808l5.272,12.65.945,2.277s-21.879-19.76-27.771-24.916-35.354-30.939-43.347-38.241-74.736-83.154-69.3-75.029,59.939,76.631,70.446,87.356c9.939,10.146,62.827,51.861,71.074,56.753a3.426,3.426,0,0,0,.955.468c1.085.173,2.479,3.053,3.822,6.656,2.309,6.254,4.452,14.663,4.452,14.663s-10.506-10.725-18.088-16.748-55.176-44.308-68.65-55.488-58.056-53.256-61.436-54.989,29.33,38.521,52.033,60.838c21.033,20.681,87.027,64.412,96.623,70.732.755.5,1.164.768,1.164.768l12.932,22.64s-.969-.69-2.706-1.922c-6.407-4.61-23.214-16.762-38.171-28.65-18.955-15.058-37.131-23.314-53.985-36.227-16.331-12.517-61.479-52.845-64.265-55.32,1.81,1.942,24.25,25.81,44.356,50.444,20.969,25.7,31.606,23.682,41.29,31.85,8.383,7.063,58.814,36.506,72.247,44.314,2.1,1.215,3.293,1.9,3.293,1.9l12.477,25.608s-.519-.341-1.481-.962c-7.078-4.634-37.513-24.5-48.3-30.975-12.24-7.345-59.509-35.859-69.236-39.781s-32.473-21.992-38.365-27.149.411,1.278,12.564,17.116,45.081,34.862,53.941,40.473c7.688,4.861,72.588,35.866,89.691,44.03,2.612,1.233,4.112,1.949,4.112,1.949l13.343,23.918s-.346-.2-1.014-.563c-9.284-5.264-80.685-45.547-89.778-49.208-9.727-3.922-25.845-5.786-36.027-6.74s-42.331-13.175-38.952-11.442,22.79,13.824,35.03,21.169,11.417,4.789,29.636,8.8,102.75,43.1,102.75,43.1l8.318,17.072s-77.317-38.59-96.4-40.91-24.654,2.294-34.425,2.619-25.521,3.984-20,3.616,18.631,5.287,26.668,8.343,31-.106,47.12,1.759,77.426,27.975,79.527,30.12a28.381,28.381,0,0,1,2.825,3.647c.322.475.677,1.009,1.032,1.586,3.385,5.386,8.3,14.991,13.19,30.189C3773.256,765.572,3770.091,784.225,3770.091,784.225Z" transform="translate(-3539.492 -293.6)" fill="#3f7b92"/>
        <path id="Path_599" data-name="Path 599" d="M3910.34,709.574c7.688,16.739,17.408,35.842,24.377,48.595,8.42,15.417,19.687,33.106,27.15,44.5-4.593-7.649-15.719-27.88-17.624-30.991-2.226-3.628-24.586-46.045-28.631-52.388C3914.538,717.618,3912.608,713.993,3910.34,709.574Z" transform="translate(-3861.088 -654.329)" fill="#3f7b92"/>
        <path id="Path_600" data-name="Path 600" d="M3686.734,562.933c10.662,9.673,29.361,38.4,29.773,39.677.448,1.393,35.138,58.052,37.4,62.148s9.194,16.988,10.577,20.8,4.559,3.95,4.591.765a15.66,15.66,0,0,0-1.02-4c.518,2.88.634,5.3-.338,5.611-2.557.823-10.831-20.5-13.755-25.2S3725.132,617,3720.15,605.909s-40.616-56.049-44.819-60.339C3672.1,542.279,3679.527,551.372,3686.734,562.933Z" transform="translate(-3656.616 -511.515)" fill="#3f7b92"/>
        <path id="Path_601" data-name="Path 601" d="M3866.582,869.611c6.278,12.269,14.01,26.427,26.179,45.56,15.709,24.695,40.455,58.047,44.363,63.307a35.081,35.081,0,0,0-1.874-3.629c-.8-1.393-10.94-13.519-14.313-19.261s-20.708-30.364-27.218-40.372-17.97-32.417-20.335-36.127C3872.733,878.07,3869.994,874.339,3866.582,869.611Z" transform="translate(-3823.142 -793.112)" fill="#3f7b92"/>
        <path id="Path_602" data-name="Path 602" d="M5425.465,1347.753c-.17.436-.479,1.184-.9,2.195a8.366,8.366,0,0,0,.4-.862C5425.194,1348.489,5425.36,1348.041,5425.465,1347.753Z" transform="translate(-5174.209 -1207.753)" fill="#3f7b92"/>
        <path id="Path_603" data-name="Path 603" d="M5430.828,1471.03a18.056,18.056,0,0,0,1.538-3.373C5432.657,1466.633,5432.082,1468,5430.828,1471.03Z" transform="translate(-5179.643 -1311.441)" fill="#3f7b92"/>
        <path id="Path_604" data-name="Path 604" d="M3640.121,686.2c6.716,7.713,7.04,17.484,31.257,57.651,19.015,31.544,39.413,56.563,51.155,71.432a16.534,16.534,0,0,1-1.538-2.411c-1.073-2.589-12.235-18.985-18.538-25.42s-17.075-25.3-25.278-36.187c-8.212-10.871-22.583-40.919-25.123-45.872-2.522-4.944-8.1-13.49-5.745-11.665s40.5,59.725,45.266,67.6,26.331,41.956,28.866,46.543,12.818,20.1,13.375,20.029c.574-.058-.114-2.545-1.271-10.171a74.778,74.778,0,0,0-3.612-13.41l4.439,22.553s-45.1-74.356-53.049-85.9-29.655-48.292-46.465-65.452S3633.406,678.487,3640.121,686.2Z" transform="translate(-3614.952 -618.956)" fill="#3f7b92"/>
        <path id="Path_605" data-name="Path 605" d="M3543.269,885.869c6.672,11.959,28.919,37.243,31.843,41.945s28.875,41.49,40.616,56.049c11.275,13.99,47.844,49.01,52.532,53.623a45.61,45.61,0,0,0-8.53-9.711c-3.335-2.693-19.14-18.525-25.226-24.677-6.389-6.436-27.333-30.827-31.168-36.167s-22.618-33.4-25.554-37.4-13.946-17.376-17.759-21.552c-3.057-3.361-10.349-14.443-12.73-17.895,5.337,6.281,37.522,40.568,39.717,44.009,2.361,3.7,40.627,52.053,48.355,63.305s30.87,34.146,31.054,33.622-.4-5.979-2.378-9.928c-.92-1.848-4.259-6.219-7.654-10.585.247.33.465.654.674.954,7.95,11.548,7.906,15.794,8.729,18.35s-34.855-38.154-45.318-53.125-37.28-50.069-43.584-56.5S3536.6,873.91,3543.269,885.869Z" transform="translate(-3542.018 -805.281)" fill="#3f7b92"/>
        <path id="Path_606" data-name="Path 606" d="M3559.832,1165.619c3.747,7.258,42.35,52.669,58.748,68.55,14.106,13.671,60.844,57.183,72.765,68.27-.945-1.84-15.233-15.2-16.892-16.668-1.641-1.461-17.194-16.556-20.039-19.52s-16.311-17.447-19.371-19.283-14.184-14.831-18.028-18.4c-3.862-3.581-18.538-18.494-24.7-24.846-3.937-4.079-14.376-17.224-20.473-24.769,11.533,12.031,41.522,40.24,43.675,43.51,2.546,3.878,49.016,51.116,49.016,51.116l23.922,24.265s.65-.915-2.514-10.35a25.627,25.627,0,0,0-1.146-2.861,113.948,113.948,0,0,1,3.216,11.83s-44.127-45.044-50.842-52.757-39.058-42.443-46.229-47.188S3556.084,1158.361,3559.832,1165.619Z" transform="translate(-3556.829 -1048.917)" fill="#3f7b92"/>
        <path id="Path_607" data-name="Path 607" d="M3539.807,1270.472c5.437,8.125,59.939,76.631,70.446,87.356,9.939,10.146,62.827,51.861,71.074,56.753a11.424,11.424,0,0,0-1.819-1.925c-1.965-1.371-26.769-22.9-30.912-25.908s-34.758-26.547-37.795-30.153-25.914-30.1-28.713-33.317c-2.531-2.91-23.712-30.667-26.818-34.661,2.547,2.961,15.979,16.68,19.484,21.391,3.736,5.032,36.009,39.9,40.839,44.339s48.667,40.873,52.381,44.742,12.343,10.952,12.913,10.881c.166-.011-.532-1.479-1.606-3.588l.945,2.277s-21.879-19.76-27.771-24.916S3617.1,1352.8,3609.1,1345.5,3534.369,1262.347,3539.807,1270.472Z" transform="translate(-3539.492 -1140.207)" fill="#3f7b92"/>
        <path id="Path_608" data-name="Path 608" d="M3559.668,1565.267c-3.38-1.733,29.33,38.521,52.033,60.838,21.033,20.681,88.191,65.18,97.787,71.5a26.266,26.266,0,0,0-3.119-3.115c-1.642-1.461-37.051-27.8-46.447-32.884s-33.469-25.085-39.213-30.176c-5.753-5.074-45.887-49.767-47.393-51.158,1.6,1.248,64.991,55.255,68.081,59.2,3.173,4.029,66.446,53.023,66.857,54.3s.511-4.636-1.57-9.609a54.3,54.3,0,0,0-3.294-6.332c2.31,6.254,4.453,14.663,4.453,14.663s-10.507-10.724-18.089-16.748-55.175-44.308-68.65-55.488S3563.047,1567,3559.668,1565.267Z" transform="translate(-3556.778 -1396.332)" fill="#3f7b92"/>
        <path id="Path_609" data-name="Path 609" d="M3652.144,1867.745c-16.593-12.715-62.922-54.129-64.366-55.414.949,1.021,23.928,25.378,44.457,50.538,20.969,25.7,31.606,23.682,41.29,31.85,8.383,7.063,62.107,38.408,75.54,46.216-.267-.479-3.764-2.752-3.893-2.979-1.122-1.995-17.6-10.093-20.862-12.568s-15.56-11.087-19.362-13.037-19.626-11.315-23.146-13.483-21.1-13.662-31.218-20.985-28.593-30.054-34.669-37.973,30.988,24.7,35.536,29.71c4.556,4.994,40.089,25.536,42.883,28.036,2.811,2.509,48.873,35.291,49.89,35.909.384.229,3.1,1.837,2.784.98-6.408-4.61-25.92-18.684-40.878-30.572C3687.173,1888.914,3669,1880.658,3652.144,1867.745Z" transform="translate(-3581.365 -1610.63)" fill="#3f7b92"/>
        <path id="Path_610" data-name="Path 610" d="M3709.083,2234.778c12.152,15.838,45.081,34.862,53.941,40.473,7.688,4.861,72.588,35.866,89.691,44.03a2.242,2.242,0,0,0-.535-.434c-2.822-1.448-17.709-9-22.708-11.029s-20.483-11.392-25.174-12.816-32.186-18.911-41.322-22.092-29.49-19.651-36.2-23.372c-6.571-3.626-21.445-21.959-22.128-22.811.8.573,13.769,9.773,17.238,13.1,3.574,3.434,21.088,10.027,23.37,12.339,2.273,2.329,58.149,33.476,59.064,34.126s40.716,25.686,45.536,28.606c3.976,2.4,4.806,2.615,4.052,1.63,0-.013-1.485-.975-1.485-.975-7.074-4.621-37.509-24.489-48.3-30.962-12.24-7.345-59.509-35.859-69.236-39.781s-32.473-21.992-38.365-27.148S3696.931,2218.941,3709.083,2234.778Z" transform="translate(-3673.727 -1960.617)" fill="#3f7b92"/>
        <path id="Path_611" data-name="Path 611" d="M3807.784,2687.674c-10.182-.954-42.331-13.176-38.952-11.442s22.79,13.823,35.03,21.169,11.417,4.789,29.636,8.8,102.75,43.1,102.75,43.1c-1.186-1.142-36.67-19.343-40.521-20.7s-25.948-12.68-33.747-14.994-34.955-11.078-43.929-12.661c-6.176-1.087-20.605-10.238-27.221-14.4,9.484,3.6,35.616,5.814,42.832,7.371,8.085,1.756,52.826,24.609,59.4,28.261,6.587,3.635,42.092,23.372,42.092,23.372s.257.025-.557-1.364c-9.284-5.264-81.7-46.11-90.791-49.77C3834.084,2690.493,3817.966,2688.628,3807.784,2687.674Z" transform="translate(-3738.159 -2359.653)" fill="#3f7b92"/>
        <path id="Path_612" data-name="Path 612" d="M4093.042,3067.594l8.318,17.072s-77.317-38.59-96.4-40.91-24.654,2.295-34.425,2.619-25.521,3.984-20,3.616,18.631,5.288,26.668,8.343,31-.106,47.12,1.759,77.426,27.975,79.527,30.12a28.394,28.394,0,0,1,2.825,3.647,3.571,3.571,0,0,0-.026-.781c-.308-.606-2.776-4.636-4.889-5.719s-21.075-9.2-27.172-11-27.025-11.642-34.229-13.555-20.728-4.133-25.374-6.164-19.086-2.32-31.835-1.389-26.214-5.442-22.034-5.6,10.991-1.662,22.689-4.017,19.256.261,27.109.555,80.82,34.528,82.235,35.243c1.406.732,8.552,4.653,9.021,3.923S4094.228,3068.735,4093.042,3067.594Z" transform="translate(-3894.953 -2677.948)" fill="#3f7b92"/>
        <path id="Path_613" data-name="Path 613" d="M4014.313,780.68l1.366-1.935s-1.147-12.327-3.529-28.489-17.826-42.225-19.472-47.338,3.1-12.284,6.653-27.535,16.642-49.09,27.043-69.367,9.97-61.049,6.871-48.766-16.1,37.63-29.1,62.976-13.525,76.3-13.525,76.3l-8.773-14.1s5.786-25.845,10.706-50,32.979-68.457,36.489-79.462c3.4-10.658,2.6-38.5,2.537-40.232a81.456,81.456,0,0,1-7.93,27.861c-6.934,13.518-32.48,61.242-39.912,81.975s-6.048,51.322-6.048,51.322-9.6-16.661-8.729-18.35,2.688-13.562,6.74-36.027,34.712-71.836,45.156-96.359c10.227-24.016,12.271-44.043,12.348-44.858-.427,1-8.961,21.506-19.063,37.145-10.357,16.031-38.048,65.856-45.025,83.621s-3.9,49.221-3.9,49.221-11.74-14.559-10.83-20.5.131-12.739,4.552-29.68,26.955-60.875,43.335-84.487c12.776-18.418,25.686-49.744,30.118-60.426-3.842,6.951-13.979,20.95-26.477,36.682-15.058,18.955-42.294,65.813-47.083,77.229s-10.295,51.279-10.295,51.279a185.265,185.265,0,0,1-7.04-17.484c-2.469-7.669,13.088-33.839,17.877-45.255s44.027-69.192,56.118-88.6a241.844,241.844,0,0,0,16.068-31.243c-6.165,11.831-66.353,91.6-80.59,111.266-14.647,20.233-13.219,46.577-13.219,46.577a197.942,197.942,0,0,1-5.306-20.863c-2.014-10.637,29.056-58.73,35.535-69.28s29.556-65.944,38.958-71.792,41.814-19.1,39.258-18.281-21.686,2.75-35.791,11.522-46,54.309-65.065,91.483-15.863,55.893-15.863,55.893l-6.628-16.206s36.9-78.183,44.7-93.391,44.352-59.422,56.267-61.847,29.53-22.2,23.1-15.9-16.573,1.1-34.968,14.079-45.131,52.619-65.845,84.681-26.587,66.4-26.587,66.4a50.8,50.8,0,0,1-4.57-9.814c-1.646-5.113,11.311-26.213,13.5-32.56s43.292-80.241,47.214-89.968,15.5-61.417,20.7-71.555,15.1-23.2,2.644-9.315-23.121,59.64-26.176,67.677-30.291,54.895-37.636,67.135-24.355,55.805-24.355,55.805l-3.66-15.75s20.3-33.34,24.636-41.789,21.15-74.524,25.571-91.465c3.974-15.217,7.151-54.076,7.757-61.832-.253,2.72-.956,9.562-2.663,20.692-2.276,14.84-22.429,74.935-29.362,88.453s-28,79.549-28,79.549l-4.115-12.782s22.167-49.458,26.132-63.431,12.807-47.855,13.761-58.038,12.57-66.118,13.026-69.086a.462.462,0,0,0,.01-.144c-.427,1-9.118,38.81-13.684,49.69-4.789,11.417-16.231,50.368-27.542,76.581s-13.306,55.07-13.306,55.07-4.483-18.307-4.028-21.275,21.02-61.785,23.707-75.347c2.642-13.307,13.657-85.047,14.049-87.685-.98,3.222-32.1,106.363-33.9,118.057s-7.429,36.912-7.6,37.7c-.036-.595-.631-15.5,2.81-26.283,3.511-11.005,6.136-59.815,4.122-70.452s-3.093-70.951-7.837-63.78-5.138,45.386-6.136,59.815.3,53.511.3,53.511-12.021-28.576-18.649-44.782-26.6-56.329-28.7-58.474,7.688,37.025,22.222,69.024,24.542,49.938,26.6,56.329,2.793,17.44,2.793,17.44-7.494-14.516-8.274-21.318-29.112-59.753-47.156-80.747-13.624-37.935-15.4-30.31c-.493,2.106,1.023,7.429,3.774,14.571,5.853,9.373,13.769,21.778,16.105,24.172,3.85,3.938,25.371,41.56,27.678,44.344s13.755,25.549,16.441,36.083,7.347,14.45,7.347,14.45-.806-14.553-2.2-19.986-7.781-17.245-10.875-22.823c-3.085-5.595-19.1-41.814-23.528-52.268s-12.187-39.7-11.111-37.8,26.129,57.059,29.492,64.92c3.346,7.853,13.8,30.472,13.88,29.967.069-.488,1.857-9.175,1.706-15.122s-.731-55.248-.076-64.868,3.9-24.773,4.52-26.143,5.665,76.005,5.177,89.212-5.464,49.371-5.968,52.58c-.488,3.218.611,9.565,1.066,9.884s4.2-8.518,5.208-20.369c1-11.834,13.376-51.918,15.109-58.232s13.5-44.2,13.78-43.344-7.937,45.455-10.533,57.111-14.459,51.1-18.213,60.642c-3.738,9.555-2.331,13.574-1.22,19.564s3.281,14.222,3.682,13.627,6.318-30.022,7.482-36.266,11.98-32.2,14.053-38.508,15.549-45.211,18.355-52.928.727,18.909-3.079,30.616-15.635,54.409-19.536,62.012-16.062,41.032-16.507,42.586,5.118,14.8,5.118,14.8,12.861-35.289,14.079-40.619,12.915-37.662,16.86-45.873,19.691-52.766,21.457-56.4-1.762,13.151-3.017,18.365-21.741,80.357-24.807,86.521-23.5,42.017-23.5,42.017l4.4,18.446s6.944-14.579,8.712-20.439,10.784-24.167,13.146-29.625,17.415-31.352,19.972-35.11c2.54-3.766,16.933-29.913,19.934-35.93s12.9-39.535,14.774-42.493-6.393,22.866-8.577,35.8-8.426,23.521-16.49,37.163-26.537,51.218-37.7,73.151-11.321,24.693-9.415,31.006c1.923,6.322,4.311,8.614,5.206,8.326s4.256-12.9,4.995-18.664c.73-5.751,12.031-27.616,15.085-36.005s34.585-52.511,38.691-59.476,29.982-34.693,38.631-39.946,18.567-5.865,13.617-1.915c-4.966,3.941-8.742,3.52-16.15,7.894s-38.812,43.065-44.98,51.992c-6.186,8.918-21.133,41.014-23.527,46.722s-22.475,48.852-24.291,52.018,5.395,16.363,6.115,18.952,1.575,1.256,1.909-9.756,10.127-32.081,11.265-36.214,17.416-31,21.668-38.6,38.182-54.134,35.875-50.7-23.547,46.615-32.34,61.677-26.927,48.169-31.889,58.344-3.759,15.317-1.253,26.036,4.343,11.651,4.343,11.651,2.79-13.595,5.272-27.8,14.2-27.848,18.131-32.062,38.02-52.8,42.742-58.551,12.751-21.739,12.815-17.993-19.255,32.65-22.71,38.347-22.871,34.519-29.258,43.164-21.84,45.346-24.116,53.612,5.491,19.816,6.552,23.989,1.918,2.67,2.537,1.525c.636-1.136,6.945-32.326,6.895-41.945-.041-9.636,14.779-28.98,17.936-37.4,3.174-8.414,48.361-70.235,48.822-70.383.352,0-3.158,8.07-6.74,14.866s-23.768,40.451-28.4,46.527-23.536,45.554-28.524,59.376c-5,13.839-7.191,35.241-5.979,41.2s10.782,17.8,11.99,17.653c1.216-.166,1.027-30.9,1.731-40.763s13.933-33.405,16.153-37.068c2.238-3.655,33.021-58.468,36.591-64.2s5.952-8.5,5.042-2.568-33.194,69.232-40.962,84.542a117.294,117.294,0,0,0-10.792,31.463c-.492,2.853-3.305,26.979-5.129,30.472-1.815,3.476.593,8.02,2.454,12.005s6.636,12.549,7.262,12.348,2.7-34.375,3.075-40.49,11.459-29.435,12.553-32.608,16.559-34.363,20.54-39.525c3.921-5.086,14.738-31.52,15.077-32.349-.008.412-.4,6.986-1.139,12.456-.771,5.666-6.952,21.875-8.924,24.161-1.964,2.269-25.795,51.684-29,60.7-3.215,9.033-9.105,52.081-9.972,53.77s8.866,15.838,9.674,16.156,1.93-3.119,1.24-7.1,3.046-31.071,4.141-37.179c1.078-6.117,7.589-26.073,9.2-29.3s17.877-34.082,20.246-40.615,6.1-11.713,6.3-10.013-1.706,18.056-6.013,27.329S4009.018,639,4005.983,647.5s-13.365,47.922-14.416,49.784.108,7.259,2.75,11.346,12.645,26.612,14.768,33.688,4.04,20.086,4.889,30.04A77.6,77.6,0,0,1,4014.313,780.68Z" transform="translate(-3781.201 -293.6)" fill="#3f7b92"/>
        <path id="Path_614" data-name="Path 614" d="M5382.929,2163.969a12.148,12.148,0,0,0,.832-2.06C5383.948,2161.045,5383.473,2162.327,5382.929,2163.969Z" transform="translate(-5138.105 -1913.541)" fill="#3f7b92"/>
        <path id="Path_615" data-name="Path 615" d="M4000.854,2785.29c-2.4-1.358-4.277-2.418-4.367-2.389A35.5,35.5,0,0,0,4000.854,2785.29Z" transform="translate(-3935.794 -2452.3)" fill="#3f7b92"/>
        <path id="Path_616" data-name="Path 616" d="M3933.408,935.254l1.5-2.1a156.855,156.855,0,0,0-4.638-38.331c-4.618-17.981-14.2-34.293-17.246-39.2a16.566,16.566,0,0,1-.7-1.906,5.164,5.164,0,0,1-.183-.788,4.821,4.821,0,0,1-.069-.74c.02-1.953,7.658-26.6,7.576-30.54-.091-3.921,9.153-30.329,16.37-47,6.991-16.146,13.161-39.307,13.533-40.739-.385.731-3.535,6.767-6.489,13.671-3.159,7.365-13.039,24.526-16.677,32.286s-8.806,35.747-11.478,54.834c-2.21,15.834-3.045,16.089-3.4,16.022-.983-1.87-4.5-8.455-7.068-12.227-3.012-4.448-2.758-7.295-2.758-7.295s4.026-24.742,6.681-40.593,14.08-37.332,19.671-49.543,17.734-41.316,18.166-41.638c0,0,.755-2.345,1.394-4.258-1.614,3.313-4.906,9.169-6.43,13.286-1.991,5.339-15.675,28.563-18.507,34.709-2.849,6.137-14.747,33.244-17.042,40.571s-1.876,23.359-2.824,34.653-2.9,8.863-2.9,8.863-3.78-7.36-4.815-8.734-4.667-9.021-5.538-11.153c-.853-2.124,1.358-4.021,2.345-9.149,1-5.145,3.339-32.351,3.771-39.6s11.288-23.567,13.9-29.29c2.632-5.715,9.226-19.194,12.4-27.03s11.377-19.83,14.312-25.655c2.54-4.994,6.163-14.948,6.8-16.734-.618,1.5-2.661,4.355-6.34,11.944-3.814,7.872-13.407,21.894-15.722,26.928s-24.963,45.548-28.122,53.788c-3.168,8.257-3.61,26.033-3.762,38.708s-1.315,9.367-2.025,10.315-2.133-1.5-3.461-3.259-4.231-7.271-5.165-8.946-3.741-8.29-4.1-9.232-2.529-6.409-2.162-6.936,1.963-7.573,2.853-11.033,4.036-10.469,5.793-16.141,4.3-20.2,5.1-24.693,8.353-18.969,11.086-22.134c2.742-3.182,6.6-12.354,8.42-14.772,1.808-2.4,19.312-27.082,21.887-30.958s9.893-17.123,10.3-20.244-11.049,15.2-13.535,19.523-23.949,35.332-25.549,38.556c-1.617,3.215-11.356,14.942-15.979,26.3s-1.974,11.442-3.132,18.4-6.72,33.2-7.188,35.381-1.657.858-2.258-1.008a32.243,32.243,0,0,0-1.875-3.939l-.008-.026-.1-.179q-.106-.2-.312-.577c-1.429-2.686-6.192-11.916-6.021-15.723,0,0-.278-6.033,3.5-14.178s8-19.771,10.9-26.251c2.891-6.489,9.181-17.359,11.827-20.228s11.625-17.13,13.59-19.921,15.229-22.41,16.8-25.341,12.807-19.288,12.807-19.288-9.873,12.362-13.675,17.818-18.016,24.972-19.587,26.93-16.192,22.269-19.164,25.92-11.128,15.038-12.644,25.358-5.078,26.731-5.45,27.416c-.355.693-2.332-2.423-2.989-4.6s-4.562-14.3-4.635-17.552-1.062-8.644,3.333-17.3,20.664-38.789,21.967-41.578c1.311-2.806,20.627-37.677,21.812-39.737s10.935-20.985,11.177-21.458a87.167,87.167,0,0,0-6.315,9.129c-2,3.508-12.425,17.712-14.965,20.209s-18.353,28.748-18.937,31.969c-.594,3.238-8.266,12.536-9.062,17.73s-8.542,19.566-8.2,25.705-1.267,7.194-1.558,10.278c-.274,3.093-.743,4.923-1.154,4.872-.42-.034-3.1-5.913-3.964-8.063s-4.6-10.031-3.415-12.8,9.927-22.142,11.29-24.612,8.245-17.114,9.123-19.076,10.651-23.179,12.116-26.035,10.846-21.478,12.3-24.5,22.073-29.2,24.844-32.248c2.676-2.949,20.524-22.662,21.789-23.944a74.6,74.6,0,0,0-8.171,7.089c-3.563,3.743-15.282,16.375-18.639,19.092s-11.025,14.087-12.1,15.928-8.059,12.343-9.042,13.675-8.268,12-10.114,15.558c-1.863,3.548-11.432,16.546-12.413,18.978s-8.777,18.879-10.18,23.154-5.706,12.685-6.567,17.5a155.692,155.692,0,0,1-5.074,17.279c-.343.689-1.982.68-2.439-.216-.479-.918-4.47-8.8-4.728-10.568s-1.114-9.333,3.831-18.2,16.851-33.1,18.416-35.78,16.709-33.283,19.833-38.564,16.423-29.044,18.573-35.379c2.08-6.115,7.641-28.629,8-30.141-.33,1.122-4.165,13.924-5.911,18.578-1.833,4.865-10.114,23.359-13.366,27.89s-15.623,24.737-16.759,26.951-15.02,26.744-16.226,31.364-12.014,26.834-13.272,30.682-5.539,13.337-5.643,13.54-.925-1.776-1.568-4.475-4.161-16.21-3.878-16.823,8.948-16.55,9.827-18.2,11.681-20.548,13.986-26.975c2.287-6.436,11.111-37.35,11.768-40.524.576-2.767,9.1-32.33,11.351-39.98-1.465,4.52-5.331,16.218-6.576,19.624-1.564,4.3-11.7,21.979-13.674,28.032s-11.062,28.475-11.073,31.6-6.149,21.871-7.04,25.543c-.874,3.681-9.02,19.833-9.4,19.561s-3.482-9.5-3.931-11.29-2.632-5.853-1.142-9.592c1.474-3.747,10.567-26.989,11.941-30.521s16.73-50.176,17.912-54.479,7.436-26.461,7.783-31.693-2.374,2.09-4.192,9.588-10.773,32.134-12.8,36.793-11.988,27.263-13.6,36.076c-1.623,8.8-7.336,32.819-7.694,32.934s-1.348-3.925-1.555-4.832-4.054-15.045-3.579-20.714,8.223-29.1,10.131-35.75,9.957-32.873,11.185-40.011c1.147-6.689,6.083-31.5,6.688-34.571-.545,2.207-3.681,15.165-5.27,20.219-1.739,5.554-9.518,26.567-10.991,31.852s-6.4,21.5-7.117,26.358-3,16.7-3.228,19.421-3.578,8.473-3.694,8.638c-.125.181-.985-1.658-1.091-2.555a32.265,32.265,0,0,1-.605-10.075c.642-4.58,3.233-30.228,4.272-36.333,1.022-6.113.724-31.579.2-38.507s-2.412-33-2.515-39.579c-.076-6.239-.529-13.429-.6-14-.121,1.026-2.713,20.976-3.023,27.241-.321,6.409-.506,31.029-.422,34.444.093,3.4,1.354,28.568.682,31.959s-2.072,6.973-2.6,5.464-7.289-15.1-8.126-17.571-10.17-22.387-11.146-24.456c-.96-2.061-10.348-22.852-10.81-23.761s-7.907-16.584-7.907-16.584,5.815,20.121,7.421,23.314,7.7,18.06,10.181,22.158,12.249,27.53,14.273,30.926,7.06,13.866,8.013,17.791,1.616,16.239,1.63,16.982-.032,3.975-.1,4.348-4.765-4.546-6.038-8.369-7.55-19.069-8.025-21.2c-.458-2.124-9.22-17.684-10.015-19.629-.812-1.953-11.827-18.115-12.646-19.431s-11.831-20.709-12.251-21.491c-.429-.765-8.891-11.273-9.52-12.086.394.875,6.358,13.527,7.72,14.866,1.421,1.391,11.522,21.81,15.268,26.741s11.084,19.356,12.417,21.875c1.35,2.528,8.359,17.595,10.626,19.729s2.61,7.977,5.609,11.638,6.166,8.68,6.847,10.972,2.987,10.635,3.514,11.353,1.418,6.639.588,7.612-3.994-1.056-4.955-3.342c-.953-2.3-11.562-21.671-13.948-25.8s-20.382-33.206-20.458-33.309c-.092-.111-18.393-29.614-19.318-31.785-.912-2.133-14.235-19.371-14.721-20,.29.682,6.471,13.745,10.589,19.219,4.244,5.645,10.857,19.612,12.611,22.038,1.746,2.443,10.179,19.435,13.432,23.142s15.631,21.954,16.974,23.935,8.145,12.853,9.417,15.011c1.256,2.149,5.272,9.278,6.526,10.017a18.722,18.722,0,0,1,4.854,4.517c.746,1.354,2.263,7.468,2.727,9.04s2.608,14.41,2.985,16.108.08,3.4-.841,2.472c-.912-.948-17.926-26.8-18.61-28.36-.664-1.536-21.6-34.522-22.714-36.462-1.1-1.931-18.592-28.041-19.412-29.23s-16.572-25.884-17.26-26.227,6.34,12.856,7.686,15.371c1.337,2.532,9.63,20.755,13.836,26.412s13.319,17.225,15.418,19.54c2.117,2.323,6.185,10.183,8.556,13.737s10.335,14.137,11.9,15.962c1.552,1.842,7.506,12.227,9.094,13.874s8.742,12.52,9.844,14.013,2.708,3.064,3.656,4.127c0,0,4.015,8.089,4.443,10.645s-.108,4.309-.454,4.068-18.986-19.012-18.986-19.012-15.242-18.073-16.729-20.9-21.769-27.611-21.769-27.611-21.952-27.961-22.492-29.2-19.607-21.86-19.607-21.86,10.552,14.547,12.752,16.6a95.568,95.568,0,0,1,10.845,14.1c2.668,4.431,10.445,17.5,14.709,22.421,4.281,4.928,12.853,14.159,16.392,18.183,3.547,4.007,15.343,18.605,17.315,20.481s8.867,9.052,11.366,11.774,12.569,12.882,14.156,14.261a17.515,17.515,0,0,1,4.063,4.25c.985,1.7,3.085,8.487,4.061,11.389a57.822,57.822,0,0,1,1.777,6.877c.063.5.156,1.318-.573.848s-18.823-18.768-20.169-20.1-20.87-20.832-21.448-21.662-17.782-17.594-18.653-18.809-17.968-20.187-19.555-21.566c-1.414-1.238-14.875-13.381-19.141-17.651,3.736,4.2,14.6,16.559,16.43,17.775,2.315,1.54,11.891,12.353,15,16.02a186.278,186.278,0,0,0,13.221,13.547c2.74,2.334,12.045,10.991,12.544,11.578s16.333,16.509,16.333,16.509l18.013,17.872s8.48,7.85,8.842,8.58c.371.713,3.528,5.523,5.053,8.728a69.589,69.589,0,0,1,3.755,10.655c-.077.462-25.184-21-25.85-21.8-.65-.792-30.573-24.72-32.068-26.651-1.513-1.939-31.458-30.318-32.844-32.171-1.37-1.844-17.786-20.979-18.919-22.265.837,1.24,13.347,17.752,15.98,20.671,2.809,3.116,15.956,17.66,17.763,19.857s4.872,7.728,7.611,8.962,13.4,10.415,15.19,11.6,14.9,12.57,17.135,13.655,12.232,10.169,14.807,12.034c2.584,1.848,13.5,11.129,14.885,12.4s6,3.964,7.26,5.549,2.862,6.174,4.25,9.127c1.4,2.936,4.886,8.866,4.97,13.071s-.029,4.03-.722,3.365c-.7-.648-26.154-20.81-27.217-21.921s-26.585-20.135-27.932-21.733-16.3-13.218-18.1-15.729-24.451-20.737-26.657-23.074c-2.176-2.29-21.883-18.983-22.489-19.507.529.592,17.537,19.2,21.318,22.748,3.857,3.611,12.676,14.442,18.154,17.785,5.494,3.352,17.088,15.264,20.531,16.625s13.9,11.269,19.108,14.176,20.874,15.146,23.957,17.186,16.725,12.25,18.161,13.424,3.277,1.809,4.561,3.737,3.492,7.3,4.567,9.279c.888,1.618,4.683,9.157,6.086,11.936a27.949,27.949,0,0,1,1.232,4.484c.03.442-1.5-1.379-4.579-3.619s-10.513-6.363-13.442-8.538-10.526-8.024-12.248-8.993S3826.553,742.121,3822.7,740s-9.468-6.4-12.512-8.189-12.428-7.581-14.985-8.817-10.224-6.343-13.2-7.911-14.94-11.131-18.951-14.651-13-13.574-16.083-16.392c-3.1-2.826,8.943,11.566,12.86,15.187s12.815,11.279,17.451,14.724,15.3,9.7,17.533,11.693,15.829,10.126,16.691,10.962c.853.854,23.487,14.192,25.6,15.628s20.547,13.431,22.592,14.48,9.369,6.1,10.549,7.043,3.015,5.335,3.567,7.048,6.032,12.165,7.75,15.308,5.043,7.25,4.713,7.54c-.322.273-11.343-6.223-13.014-7.209-1.688-.994-13.816-8.954-16.081-9.988s-9.655-6.414-13.066-7.5c-3.395-1.08-13.973-6.9-16.372-8.131-2.382-1.222-12.191-7.939-13.934-8.972s-10.344-5.487-13.043-6.9a157.284,157.284,0,0,0-14.66-6.1c-3.766-1.313-11.229-7.318-15.236-9.2s-14.74-9.065-17.987-11.307-8.911-8.135-7.705-6.407,8.543,9.184,10.372,10.133,14.032,8.531,18.132,12.5,16.953,10.286,19.186,11.217,20.564,10.548,25.469,13.906,25.162,13.173,27.582,14.863,25.748,12.759,27.842,13.961,12.028,5.593,12.467,5.861,11.509,20.982,12.68,22.778,2.229,3.811,1.83,4.588-4.492-1.728-6.031-2.474-13.878-7.876-19.078-10.49-13.587-6.8-15.967-8.36-18.449-8.534-22.336-10.4-10.521-4.372-13.277-6.01-17.267-5.783-21-6.994-11.924-2.157-20.56-3.961A65.859,65.859,0,0,1,3768,777.688c3.5,1.977,8.018,4.571,9.762,5.477,2.961,1.572,12.607,3.4,15.71,3.928,3.12.533,26.733,7.8,30.038,8.556s33.481,15.263,35.944,16.516,28.3,14.165,29.926,15.349,11.152,5.283,11.622,5.428,7.61,13.6,8.891,16.662,1.283,3.636,1.152,4.059c-4.04-1.9-18.79-8.806-20.2-9.1-.606-.13-16.522-8.026-34.449-15.6-16.943-7.143-34.019-14.173-41.362-14.546a100.817,100.817,0,0,0-29.161,3.28s23.482,2.259,29.426,1.572,39.693,11.2,39.693,11.2,47.9,19.395,56.2,24.3c1.549.912,3.012,3.615,4.371,7.353,3.384,5.386,8.3,14.991,13.19,30.189C3936.573,916.6,3933.408,935.254,3933.408,935.254Z" transform="translate(-3702.809 -444.628)" fill="#3f7b92"/>
        <path id="Path_617" data-name="Path 617" d="M4834.166,968.205c-.026.051-.2.643-.5,1.643.32-1.02.518-1.634.514-1.647Z" transform="translate(-4661.788 -878.608)" fill="#3f7b92"/>
        <path id="Path_618" data-name="Path 618" d="M3777.983,1409.144c.188.236.554.626,1.058,1.141C3778.046,1409.165,3777.622,1408.681,3777.983,1409.144Z" transform="translate(-3746.199 -1260.839)" fill="#3f7b92"/>
        <path id="Path_619" data-name="Path 619" d="M4783.5,2715.522l-.1-.179Z" transform="translate(-4618.199 -2393.715)" fill="#3f7b92"/>
      </g>
    </g>
  </g>
</svg>
